<svg width="24" height="24" viewBox="0 0 24 24" fill="none" xmlns="http://www.w3.org/2000/svg">
<path d="M9.54004 15.5205L7.12207 18.0273C6.79897 18.3624 6.50499 18.6704 6.2334 18.8848C5.9446 19.1127 5.59173 19.3096 5.14258 19.3096C4.69356 19.3095 4.34147 19.1126 4.05273 18.8848C3.78106 18.6703 3.48631 18.3625 3.16309 18.0273L2.45996 17.2988L3.54004 16.2568L4.24316 16.9863C4.59641 17.3527 4.80965 17.5717 4.98242 17.708C5.06147 17.7703 5.10764 17.7951 5.12988 17.8047C5.13496 17.8069 5.13855 17.8079 5.14062 17.8086H5.14551C5.14763 17.8079 5.15145 17.8068 5.15625 17.8047C5.17864 17.795 5.22488 17.7702 5.30371 17.708C5.47649 17.5717 5.68971 17.3527 6.04297 16.9863L8.45996 14.4795L9.54004 15.5205Z" fill="black"/>
<path d="M21 18.75H11V17.25H21V18.75Z" fill="black"/>
<path d="M9.54004 10.0205L7.12207 12.5273C6.79897 12.8624 6.50499 13.1704 6.2334 13.3848C5.9446 13.6127 5.59173 13.8096 5.14258 13.8096C4.69356 13.8095 4.34147 13.6126 4.05273 13.3848C3.78106 13.1703 3.48631 12.8625 3.16309 12.5273L2.45996 11.7988L3.54004 10.7568L4.24316 11.4863C4.59641 11.8527 4.80965 12.0717 4.98242 12.208C5.06147 12.2703 5.10764 12.2951 5.12988 12.3047C5.13496 12.3069 5.13855 12.3079 5.14062 12.3086H5.14551C5.14763 12.3079 5.15145 12.3068 5.15625 12.3047C5.17864 12.295 5.22488 12.2702 5.30371 12.208C5.47649 12.0717 5.68971 11.8527 6.04297 11.4863L8.45996 8.97949L9.54004 10.0205Z" fill="black"/>
<path d="M21 12.75H11V11.25H21V12.75Z" fill="black"/>
<path d="M9.54004 4.52051L7.12207 7.02734C6.79897 7.36241 6.50499 7.67036 6.2334 7.88477C5.9446 8.11268 5.59173 8.30957 5.14258 8.30957C4.69356 8.30949 4.34147 8.11264 4.05273 7.88477C3.78106 7.67034 3.48631 7.36253 3.16309 7.02734L2.45996 6.29883L3.54004 5.25684L4.24316 5.98633C4.59641 6.35265 4.80965 6.57166 4.98242 6.70801C5.06147 6.77034 5.10764 6.79513 5.12988 6.80469C5.13496 6.80687 5.13855 6.80792 5.14062 6.80859H5.14551C5.14763 6.80789 5.15145 6.80675 5.15625 6.80469C5.17864 6.79502 5.22488 6.7702 5.30371 6.70801C5.47649 6.57165 5.68971 6.35267 6.04297 5.98633L8.45996 3.47949L9.54004 4.52051Z" fill="black"/>
<path d="M21 6.75H11V5.25H21V6.75Z" fill="black"/>
</svg>
