<svg width="24" height="24" viewBox="0 0 24 24" fill="none" xmlns="http://www.w3.org/2000/svg">
<path d="M11.3181 14.4775C11.7605 14.33 12.2388 14.3301 12.6813 14.4775C12.8423 14.5312 12.9695 14.6574 13.0231 14.8184C13.1705 15.2607 13.1705 15.7393 13.0231 16.1816C12.9695 16.3426 12.8423 16.4688 12.6813 16.5225C12.2388 16.6699 11.7605 16.67 11.3181 16.5225C11.1572 16.4688 11.0309 16.3426 10.9772 16.1816C10.8298 15.7392 10.8298 15.2608 10.9772 14.8184C11.0309 14.6574 11.1572 14.5312 11.3181 14.4775Z" fill="black"/>
<path d="M12.7497 13H11.2497V7H12.7497V13Z" fill="black"/>
<path fill-rule="evenodd" clip-rule="evenodd" d="M11.9997 1.25C12.9242 1.25 13.5982 1.80746 14.1745 2.5332C14.7466 3.25386 15.3559 4.31372 16.113 5.625L20.4431 13.125C21.2002 14.4364 21.813 15.4938 22.1511 16.3496C22.4916 17.2117 22.6378 18.0742 22.1755 18.875C21.7131 19.6757 20.8931 19.9811 19.9763 20.1172C19.0661 20.2523 17.8439 20.25 16.3298 20.25H7.66962C6.15547 20.25 4.9333 20.2523 4.02313 20.1172C3.1063 19.981 2.28623 19.6757 1.82392 18.875C1.36165 18.0742 1.5078 17.2117 1.84833 16.3496C2.1864 15.4938 2.79923 14.4363 3.55634 13.125L7.88642 5.625C8.64347 4.31374 9.2528 3.25388 9.82489 2.5332C10.4011 1.80746 11.0753 1.25009 11.9997 1.25ZM11.9997 2.75C11.7697 2.75007 11.4817 2.85969 10.9997 3.4668C10.5134 4.07942 9.96758 5.01995 9.18524 6.375L4.85517 13.875C4.07275 15.2302 3.53024 16.1729 3.24286 16.9004C2.95809 17.6213 3.00783 17.9258 3.12274 18.125C3.23773 18.3242 3.47701 18.5189 4.24384 18.6328C5.0175 18.7476 6.10504 18.75 7.66962 18.75H16.3298C17.8943 18.75 18.9819 18.7476 19.7556 18.6328C20.5224 18.519 20.7616 18.3241 20.8766 18.125C20.9916 17.9258 21.0414 17.6215 20.7565 16.9004C20.4691 16.1729 19.9266 15.2302 19.1442 13.875L14.8141 6.375C14.0318 5.01992 13.486 4.07941 12.9997 3.4668C12.5176 2.85958 12.2297 2.75 11.9997 2.75Z" fill="black"/>
</svg>
