<svg width="24" height="24" viewBox="0 0 24 24" fill="none" xmlns="http://www.w3.org/2000/svg">
<path fill-rule="evenodd" clip-rule="evenodd" d="M7.13515 3.39321C10.3643 2.96269 13.6365 2.96267 16.8656 3.39321C18.8146 3.65323 20.3479 5.18638 20.6078 7.13539C21.0383 10.3645 21.0383 13.6367 20.6078 16.8659C20.3478 18.8148 18.8145 20.3481 16.8656 20.6081C13.6365 21.0386 10.3643 21.0386 7.13515 20.6081C5.18614 20.3482 3.65299 18.8148 3.39296 16.8659C2.96242 13.6367 2.96245 10.3646 3.39296 7.13539C3.65285 5.18626 5.18602 3.65309 7.13515 3.39321ZM16.6674 4.87953C13.5698 4.46655 10.4309 4.46658 7.33339 4.87953C6.05538 5.04994 5.04969 6.05563 4.87929 7.33364C4.46633 10.4312 4.46631 13.5701 4.87929 16.6676C5.04983 17.9455 6.05551 18.9513 7.33339 19.1217C10.4309 19.5347 13.5699 19.5347 16.6674 19.1217C17.9452 18.9512 18.951 17.9454 19.1215 16.6676C19.5345 13.5701 19.5344 10.4311 19.1215 7.33364C18.9511 6.05575 17.9452 5.05008 16.6674 4.87953Z" fill="black"/>
</svg>
