<svg width="24" height="24" viewBox="0 0 24 24" fill="none" xmlns="http://www.w3.org/2000/svg">
<path fill-rule="evenodd" clip-rule="evenodd" d="M15.4507 13.4264C16.0962 13.039 16.9037 13.039 17.5493 13.4264C18.3799 13.9248 19.0752 14.6201 19.5737 15.4508C19.961 16.0963 19.961 16.9039 19.5737 17.5494C19.0752 18.38 18.3799 19.0753 17.5493 19.5738C16.9037 19.9612 16.0962 19.9612 15.4507 19.5738C14.62 19.0753 13.9247 18.38 13.4262 17.5494C13.0389 16.9039 13.0389 16.0963 13.4262 15.4508C13.9247 14.6201 14.62 13.9248 15.4507 13.4264ZM16.7768 14.7125C16.6064 14.6103 16.3935 14.6103 16.2231 14.7125C15.6033 15.0844 15.0843 15.6034 14.7124 16.2232C14.6102 16.3937 14.6102 16.6065 14.7124 16.7769C15.0843 17.3967 15.6033 17.9158 16.2231 18.2877C16.3935 18.3898 16.6064 18.3898 16.7768 18.2877C17.3966 17.9158 17.9157 17.3967 18.2876 16.7769C18.3897 16.6065 18.3897 16.3937 18.2876 16.2232C17.9157 15.6034 17.3966 15.0844 16.7768 14.7125Z" fill="black"/>
<path d="M19.5298 5.52988L5.52975 19.5299L4.46921 18.4693L18.4692 4.46933L19.5298 5.52988Z" fill="black"/>
<path fill-rule="evenodd" clip-rule="evenodd" d="M6.45065 4.42636C7.0962 4.03903 7.90374 4.03903 8.54929 4.42636C9.37992 4.92484 10.0752 5.62013 10.5737 6.45077C10.961 7.09632 10.961 7.90386 10.5737 8.54941C10.0752 9.38004 9.37992 10.0753 8.54929 10.5738C7.90374 10.9612 7.0962 10.9612 6.45065 10.5738C5.62001 10.0753 4.92472 9.38005 4.42624 8.54941C4.03891 7.90386 4.03891 7.09632 4.42624 6.45077C4.92472 5.62013 5.62 4.92484 6.45065 4.42636ZM7.77682 5.71249C7.6064 5.61034 7.39354 5.61034 7.22311 5.71249C6.6033 6.08439 6.08427 6.60343 5.71237 7.22324C5.61022 7.39366 5.61022 7.60652 5.71237 7.77695C6.08427 8.39675 6.6033 8.9158 7.22311 9.28769C7.39354 9.38984 7.6064 9.38984 7.77682 9.28769C8.39662 8.91579 8.91567 8.39675 9.28757 7.77695C9.38972 7.60652 9.38972 7.39366 9.28757 7.22324C8.91568 6.60343 8.39663 6.08439 7.77682 5.71249Z" fill="black"/>
</svg>
