<svg width="19.5" height="19.5" viewBox="0 0 19.5 19.5" fill="none" xmlns="http://www.w3.org/2000/svg">
<g id="Vector">
<path d="M14.8301 7.72461L10.5088 13.0068C10.3024 13.259 10.0289 13.4477 9.71973 13.5508L9.66113 13.5703C8.74516 13.8756 7.75484 13.8756 6.83887 13.5703C6.45898 13.4437 6.1368 13.1851 5.93066 12.8418L4.60645 10.6357L5.89355 9.86426L7.2168 12.0693C7.23864 12.1057 7.27225 12.134 7.3125 12.1475C7.92075 12.3502 8.57925 12.3502 9.1875 12.1475L9.24512 12.1279C9.28533 12.1145 9.3208 12.0894 9.34766 12.0566L13.6699 6.77539L14.8301 7.72461Z" fill="#000000"/>
<path fill-rule="evenodd" clip-rule="evenodd" d="M9.75 0C15.1348 0 19.5 4.36522 19.5 9.75C19.5 15.1348 15.1348 19.5 9.75 19.5C4.36522 19.5 0 15.1348 0 9.75C0 4.36522 4.36522 0 9.75 0ZM9.75 1.5C5.19365 1.5 1.5 5.19365 1.5 9.75C1.5 14.3063 5.19365 18 9.75 18C14.3063 18 18 14.3063 18 9.75C18 5.19365 14.3063 1.5 9.75 1.5Z" fill="#000000"/>
</g>
</svg>


