<svg width="24" height="24" viewBox="0 0 24 24" fill="none" xmlns="http://www.w3.org/2000/svg">
<path d="M22.0302 16.5303L18.4442 20.1162C18.1261 20.4344 17.835 20.7273 17.5673 20.9316C17.2822 21.1492 16.9369 21.3359 16.4999 21.3359C16.0629 21.3359 15.7177 21.1492 15.4325 20.9316C15.1648 20.7273 14.8738 20.4344 14.5556 20.1162L13.4696 19.0303L14.5302 17.9697L15.6161 19.0557C15.9643 19.4039 16.1737 19.6103 16.3427 19.7393C16.4196 19.798 16.4644 19.8219 16.4862 19.8311C16.491 19.833 16.4949 19.8343 16.497 19.835L16.4999 19.8359L16.5028 19.835C16.5049 19.8343 16.5088 19.8331 16.5136 19.8311C16.5354 19.8219 16.5801 19.798 16.6571 19.7393C16.8261 19.6103 17.0355 19.4039 17.3837 19.0557L20.9696 15.4697L22.0302 16.5303Z" fill="#000000"/>
<path fill-rule="evenodd" clip-rule="evenodd" d="M8.74991 5.25H15.2499V3H16.7499V5.25586C18.99 5.35852 20.8618 7.01832 21.2206 9.24414C21.2276 9.28774 21.2349 9.33627 21.246 9.41406C21.2581 9.49847 21.2643 9.543 21.2704 9.58691C21.4756 11.0604 21.5471 12.5481 21.4853 14.0312L19.9862 13.9688C20.031 12.8956 20.0012 11.8201 19.8974 10.75H4.10538C3.92883 12.5658 3.96387 14.397 4.21573 16.2061C4.2214 16.2468 4.22795 16.2877 4.24015 16.373C4.25219 16.4573 4.25628 16.4904 4.26066 16.5176C4.51113 18.0705 5.8383 19.2206 7.41105 19.249C7.43852 19.2495 7.47161 19.25 7.55655 19.25H11.9999V20.75H7.55655C7.478 20.75 7.42882 20.7498 7.38468 20.749C5.0858 20.7077 3.14616 19.0258 2.78019 16.7559C2.77316 16.7123 2.76591 16.6637 2.7548 16.5859C2.74274 16.5015 2.7365 16.457 2.73038 16.4131C2.41515 14.1488 2.41515 11.8512 2.73038 9.58691C2.7365 9.543 2.74274 9.49848 2.7548 9.41406C2.76591 9.33629 2.77316 9.28775 2.78019 9.24414C3.13898 7.0187 5.01038 5.35904 7.24991 5.25586V3H8.74991V5.25ZM7.41105 6.75098C5.91804 6.77792 4.64886 7.81633 4.30948 9.25H19.6913C19.3519 7.81632 18.0828 6.77788 16.5898 6.75098C16.5623 6.75048 16.5292 6.75 16.4442 6.75H7.55655C7.47161 6.75 7.43852 6.75048 7.41105 6.75098Z" fill="#000000"/>
</svg>

