<svg width="24" height="24" viewBox="0 0 24 24" fill="none" xmlns="http://www.w3.org/2000/svg">
<path fill-rule="evenodd" clip-rule="evenodd" d="M10.2568 2.16331C11.4014 1.8772 12.5986 1.8772 13.7431 2.16331C15.5101 2.60507 16.75 4.19257 16.75 6.0139V8.28929C18.5197 8.51055 20.0326 9.7253 20.6074 11.4494C21.3755 13.7541 21.3756 16.2464 20.6074 18.551C19.9704 20.4615 18.1819 21.7502 16.1679 21.7502H7.83199C5.81807 21.7502 4.02954 20.4615 3.39254 18.551C2.62434 16.2464 2.62439 13.7541 3.39254 11.4494C3.9673 9.7253 5.48021 8.51055 7.24996 8.28929V6.0139C7.24996 4.19257 8.48986 2.60507 10.2568 2.16331ZM7.83199 9.75022C6.46363 9.75022 5.24913 10.6259 4.81637 11.9241C4.15085 13.9208 4.1508 16.0797 4.81637 18.0764C5.2492 19.3744 6.46371 20.2502 7.83199 20.2502H16.1679C17.5362 20.2502 18.7507 19.3744 19.1836 18.0764C19.8491 16.0797 19.8491 13.9208 19.1836 11.9241C18.7508 10.6259 17.5363 9.75022 16.1679 9.75022H7.83199ZM13.3798 3.61839C12.474 3.39193 11.5259 3.39193 10.6201 3.61839C9.52103 3.8933 8.74996 4.88096 8.74996 6.0139V8.25022H15.25V6.0139C15.25 4.88096 14.4789 3.8933 13.3798 3.61839Z" fill="black"/>
</svg>
