<svg width="28" height="28" viewBox="0 0 28 28" fill="none" xmlns="http://www.w3.org/2000/svg">
<path d="M11.2854 2.3165C13.0477 1.72916 14.9531 1.72911 16.7154 2.3165C17.6693 2.63464 18.3809 3.43935 18.5782 4.42538L18.9154 6.11158C19.0669 6.86912 19.1681 7.36917 19.2868 7.74537C19.3991 8.10101 19.5036 8.26744 19.6184 8.38225C19.7332 8.49697 19.8997 8.60158 20.2553 8.71379C20.6315 8.83248 21.1316 8.93372 21.889 9.08521L23.5752 9.42245C24.5612 9.6199 25.3661 10.3312 25.6841 11.2852C26.2714 13.0475 26.2715 14.953 25.6841 16.7153C25.3661 17.6692 24.5612 18.3807 23.5752 18.5781L21.889 18.9153C21.1314 19.0668 20.6315 19.168 20.2553 19.2867C19.8993 19.399 19.7332 19.5034 19.6184 19.6183C19.5035 19.7331 19.3992 19.8992 19.2868 20.2551C19.1681 20.6314 19.0669 21.1313 18.9154 21.8889L18.5782 23.5751C18.3808 24.5611 17.6693 25.3659 16.7154 25.684C14.9531 26.2714 13.0476 26.2713 11.2854 25.684C10.3314 25.366 9.62003 24.5611 9.42258 23.5751L9.08534 21.8889C8.93384 21.1314 8.8326 20.6314 8.71392 20.2551C8.6017 19.8996 8.49709 19.7331 8.38237 19.6183C8.26756 19.5034 8.10113 19.399 7.74549 19.2867C7.36929 19.168 6.86924 19.0668 6.1117 18.9153L4.42551 18.5781C3.43947 18.3808 2.63476 17.6692 2.31662 16.7153C1.72923 14.9529 1.72928 13.0476 2.31662 11.2852C2.63467 10.3311 3.43932 9.61979 4.42551 9.42245L6.1117 9.08521C6.86932 8.93369 7.36927 8.83252 7.74549 8.71379C8.10128 8.60149 8.26754 8.49709 8.38237 8.38225C8.49721 8.26741 8.60161 8.10115 8.71392 7.74537C8.83265 7.36915 8.93381 6.86919 9.08534 6.11158L9.42258 4.42538C9.61991 3.4392 10.3312 2.63454 11.2854 2.3165Z" fill="#000000"/>
</svg>

