<svg width="21.5" height="14.9289" viewBox="0 0 21.5 14.9289" fill="none" xmlns="http://www.w3.org/2000/svg">
<path id="Vector" fill-rule="evenodd" clip-rule="evenodd" d="M7.03614 0.0191414C7.6223 0.116329 8.11912 0.504266 8.35548 1.04941C8.44646 1.25951 8.4757 1.47147 8.48829 1.65977C8.50063 1.84495 8.50001 2.07097 8.50001 2.32188V6.71445H13V2.32188C13 2.07097 12.9994 1.84495 13.0117 1.65977C13.0243 1.47147 13.0536 1.25951 13.1445 1.04941C13.3809 0.504271 13.8777 0.116333 14.4639 0.0191414C14.6901 -0.0183233 14.9029 0.00516057 15.0889 0.0386727C15.2717 0.0716292 15.4907 0.126179 15.7344 0.18711C16.3342 0.337074 16.7951 0.444145 17.1729 0.672462C17.7504 1.02167 18.1792 1.57141 18.3779 2.21641C18.5077 2.63816 18.5 3.11189 18.5 3.73008V3.92344L19.6191 4.29746C19.9327 4.40199 20.2285 4.49905 20.4649 4.60898C20.7186 4.72706 20.9733 4.88887 21.1699 5.16172C21.3665 5.43458 21.4399 5.7274 21.4717 6.00547C21.5012 6.26435 21.5 6.57548 21.5 6.90586V8.02305C21.5 8.35344 21.5012 8.66458 21.4717 8.92344C21.4399 9.20148 21.3666 9.49438 21.1699 9.76719C20.9732 10.0399 20.7186 10.2019 20.4649 10.3199C20.2285 10.4298 19.9327 10.5269 19.6191 10.6314L18.5 11.0045V11.1988C18.5 11.817 18.5078 12.2908 18.3779 12.7125C18.1792 13.3574 17.7504 13.9073 17.1729 14.2564C16.7952 14.4847 16.3342 14.5918 15.7344 14.7418C15.4907 14.8027 15.2717 14.8573 15.0889 14.8902C14.903 14.9237 14.69 14.9472 14.4639 14.9098C13.8778 14.8126 13.381 14.4245 13.1445 13.8795C13.0535 13.6694 13.0243 13.4574 13.0117 13.2691C12.9994 13.084 13 12.858 13 12.607V8.21445H8.50001V12.607C8.50001 12.858 8.50065 13.084 8.48829 13.2691C8.47568 13.4574 8.44651 13.6694 8.35548 13.8795C8.11905 14.4245 7.62221 14.8126 7.03614 14.9098C6.80997 14.9472 6.59706 14.9237 6.41114 14.8902C6.22833 14.8573 6.00935 14.8027 5.76563 14.7418C5.16582 14.5918 4.70486 14.4847 4.32716 14.2564C3.74964 13.9073 3.32085 13.3574 3.12208 12.7125C2.99221 12.2908 3 11.817 3.00001 11.1988V11.0045L1.88087 10.6314C1.56731 10.5269 1.27149 10.4298 1.03516 10.3199C0.78142 10.2019 0.526773 10.0399 0.330086 9.76719C0.13346 9.49438 0.0601076 9.20148 0.0283279 8.92344C-0.00122509 8.66458 6.32118e-06 8.35344 7.54986e-06 8.02305V6.90586C7.29435e-06 6.57548 -0.00119147 6.26435 0.0283279 6.00547C0.0600739 5.72741 0.13351 5.43457 0.330086 5.16172C0.526758 4.88887 0.781393 4.72706 1.03516 4.60898C1.27148 4.49905 1.56729 4.40199 1.88087 4.29746L3.00001 3.92344V3.73008C3.00001 3.11189 2.9923 2.63816 3.12208 2.21641C3.32078 1.57142 3.74962 1.02167 4.32716 0.672462C4.70487 0.444147 5.16578 0.337072 5.76563 0.18711C6.00935 0.12618 6.22833 0.0716295 6.41114 0.0386727C6.59709 0.00516057 6.80992 -0.0183233 7.03614 0.0191414ZM6.79102 1.49863C6.81228 1.50211 6.79525 1.4929 6.67677 1.51426C6.55483 1.53625 6.39305 1.5764 6.12989 1.64219C5.43039 1.81706 5.24089 1.87361 5.10352 1.95664C4.84112 2.11534 4.64601 2.36477 4.55567 2.65781C4.50853 2.81118 4.50001 3.00953 4.50001 3.73008V11.1988C4.50001 11.9196 4.50844 12.1177 4.55567 12.2711C4.64608 12.5641 4.84114 12.8136 5.10352 12.9723C5.24089 13.0552 5.4306 13.1119 6.12989 13.2867C6.39305 13.3525 6.55484 13.3927 6.67677 13.4146C6.7953 13.436 6.81236 13.4268 6.79102 13.4303C6.87459 13.4164 6.94569 13.3605 6.9795 13.2828C6.97108 13.3024 6.98322 13.2881 6.99122 13.1686C6.99945 13.045 7.00001 12.8781 7.00001 12.607V2.32188C7.00001 2.05086 6.99943 1.88395 6.99122 1.76035C6.98317 1.6398 6.97079 1.626 6.9795 1.64609C6.94576 1.56827 6.87468 1.51257 6.79102 1.49863ZM14.709 1.49863C14.6253 1.51257 14.5543 1.56828 14.5205 1.64609C14.5292 1.626 14.5168 1.6398 14.5088 1.76035C14.5006 1.88395 14.5 2.05086 14.5 2.32188V12.607C14.5 12.8781 14.5006 13.045 14.5088 13.1686C14.5168 13.2881 14.5289 13.3024 14.5205 13.2828C14.5543 13.3605 14.6254 13.4164 14.709 13.4303C14.6877 13.4268 14.7047 13.436 14.8232 13.4146C14.9452 13.3927 15.107 13.3525 15.3701 13.2867C16.0694 13.1119 16.2591 13.0552 16.3965 12.9723C16.6589 12.8136 16.8539 12.5641 16.9443 12.2711C16.9916 12.1177 17 11.9196 17 11.1988V3.73008C17 3.00953 16.9915 2.81118 16.9443 2.65781C16.854 2.36476 16.6589 2.11534 16.3965 1.95664C16.2591 1.87361 16.0696 1.81707 15.3701 1.64219C15.107 1.5764 14.9452 1.53625 14.8232 1.51426C14.7048 1.49291 14.6878 1.5021 14.709 1.49863ZM2.3545 5.72031C2.00834 5.8357 1.80877 5.90384 1.66798 5.96934C1.60469 5.99879 1.57321 6.019 1.5586 6.02988C1.55232 6.03456 1.54865 6.03691 1.54786 6.0377L1.54688 6.03867C1.54628 6.03995 1.54435 6.04527 1.542 6.05234C1.53628 6.06974 1.52645 6.10637 1.51856 6.17539C1.50099 6.32968 1.50001 6.5411 1.50001 6.90586V8.02305C1.50001 8.38787 1.50095 8.59925 1.51856 8.75352C1.5265 8.82276 1.53631 8.85934 1.542 8.87656C1.54454 8.88418 1.54651 8.88851 1.54688 8.88926L1.54786 8.89121C1.54893 8.89213 1.5526 8.89455 1.5586 8.89902C1.5733 8.90995 1.60485 8.9302 1.66798 8.95957C1.80878 9.02506 2.00838 9.09322 2.3545 9.20859L3.00001 9.42344V5.50449L2.3545 5.72031ZM18.5 9.42344L19.1455 9.20859C19.4916 9.09322 19.6912 9.02506 19.832 8.95957C19.8952 8.93021 19.9267 8.90995 19.9414 8.89902C19.9474 8.89456 19.9511 8.89213 19.9522 8.89121L19.9531 8.89023C19.9535 8.88949 19.9555 8.88418 19.958 8.87656C19.9637 8.85934 19.9735 8.82276 19.9815 8.75352C19.9991 8.59925 20 8.38787 20 8.02305V6.90586C20 6.5411 19.999 6.32968 19.9815 6.17539C19.9736 6.10636 19.9637 6.06973 19.958 6.05234C19.9557 6.04526 19.9537 6.04092 19.9531 6.03965L19.9522 6.0377C19.9514 6.03691 19.9477 6.03457 19.9414 6.02988C19.9268 6.019 19.8953 5.99879 19.832 5.96934C19.6912 5.90384 19.4917 5.8357 19.1455 5.72031L18.5 5.50449V9.42344Z" fill="#000000"/>
</svg>


