<svg width="24" height="24" viewBox="0 0 24 24" fill="none" xmlns="http://www.w3.org/2000/svg">
<path d="M12.296 4.68945L6.31356 7.25293C5.84473 7.45388 5.47472 7.83306 5.28524 8.30664C4.9057 9.25549 4.68032 10.2485 4.60458 11.25H21.0001V12.75H4.60458C4.68032 13.7515 4.9057 14.7445 5.28524 15.6934C5.47472 16.1669 5.84473 16.5461 6.31356 16.7471L12.296 19.3105L11.7042 20.6895L5.72274 18.126C4.88821 17.7683 4.22987 17.093 3.89266 16.25C2.8014 13.5217 2.8014 10.4783 3.89266 7.75C4.22987 6.90698 4.88821 6.23171 5.72274 5.87402L11.7042 3.31055L12.296 4.68945Z" fill="black"/>
</svg>
