<svg width="22" height="22" viewBox="0 0 22 22" fill="none" xmlns="http://www.w3.org/2000/svg">
<g id="Vector">
<path fill-rule="evenodd" clip-rule="evenodd" d="M8.75 7.59277C10.1945 7.01503 11.8055 7.01503 13.25 7.59277C13.7779 7.80392 14.1961 8.22215 14.4072 8.75C14.985 10.1945 14.985 11.8055 14.4072 13.25C14.1961 13.7779 13.7779 14.1961 13.25 14.4072C11.8055 14.985 10.1945 14.985 8.75 14.4072C8.22215 14.1961 7.80392 13.7779 7.59277 13.25C7.01503 11.8055 7.01503 10.1945 7.59277 8.75C7.80392 8.22215 8.22215 7.80392 8.75 7.59277ZM12.6934 8.98535C11.6064 8.55056 10.3936 8.55056 9.30664 8.98535C9.16006 9.04403 9.04403 9.16006 8.98535 9.30664C8.55056 10.3936 8.55056 11.6064 8.98535 12.6934C9.04403 12.8399 9.16006 12.956 9.30664 13.0146C10.3936 13.4494 11.6064 13.4494 12.6934 13.0146C12.8399 12.956 12.956 12.8399 13.0146 12.6934C13.4494 11.6064 13.4494 10.3936 13.0146 9.30664C12.956 9.16006 12.8399 9.04403 12.6934 8.98535Z" fill="#000000"/>
<path fill-rule="evenodd" clip-rule="evenodd" d="M11.75 3.30176C13.0751 3.39085 14.3879 3.71646 15.624 4.27832C16.5539 4.70101 17.299 5.44611 17.7217 6.37598L17.7812 6.50684C18.3243 7.70144 18.6443 8.96875 18.7471 10.25H22V11.75H18.7676C18.6983 13.0355 18.4098 14.3126 17.8965 15.5225C17.4756 16.5143 16.6919 17.3083 15.7061 17.7432L15.624 17.7793C14.3863 18.3254 13.0735 18.6369 11.75 18.7168V22H10.25V18.708C8.92457 18.6123 7.61261 18.2844 6.37891 17.7236C5.44968 17.3013 4.70133 16.5546 4.27832 15.624C3.71647 14.3879 3.39183 13.075 3.30273 11.75H0V10.25H3.30273C3.39183 8.92496 3.71647 7.61205 4.27832 6.37598C4.70101 5.44611 5.44611 4.70101 6.37598 4.27832C7.61207 3.71646 8.92494 3.39085 10.25 3.30176V0H11.75V3.30176ZM15.0029 5.64355C12.4595 4.48756 9.54055 4.48756 6.99707 5.64355C6.39731 5.91617 5.91617 6.39731 5.64355 6.99707C4.48756 9.54055 4.48756 12.4595 5.64355 15.0029C5.91587 15.602 6.39956 16.0845 7 16.3574C9.5419 17.5128 12.4656 17.5335 15.0186 16.4072L15.1006 16.3711C15.7373 16.0902 16.2438 15.5772 16.5156 14.9365C17.577 12.4346 17.5406 9.60208 16.416 7.12793L16.3564 6.99707C16.0838 6.39731 15.6027 5.91617 15.0029 5.64355Z" fill="#000000"/>
</g>
</svg>


