<svg width="24" height="24" viewBox="0 0 24 24" fill="none" xmlns="http://www.w3.org/2000/svg">
<path d="M14.8047 3.95868C15.4496 3.47509 16.2701 3.28895 17.0605 3.44697C19.8319 4.00126 21.9983 6.16789 22.5527 8.93915L22.6182 9.2663C22.7205 9.7781 22.6874 10.3082 22.5225 10.8034L22.4922 10.8942C21.2859 14.513 18.8567 17.5991 15.6221 19.6208L12.9375 21.2985C12.364 21.6568 11.636 21.6568 11.0625 21.2985L8.37793 19.6208C6.36907 18.3652 4.67128 16.6989 3.38379 14.7497H5.22559C6.30678 16.1663 7.63918 17.3897 9.17285 18.3483L11.8574 20.0261C11.9447 20.0805 12.0553 20.0806 12.1426 20.0261L14.8271 18.3483C17.7661 16.5114 19.9734 13.7075 21.0693 10.4196L21.0996 10.3298C21.1821 10.0821 21.1986 9.81622 21.1475 9.56025L21.082 9.2331C20.6464 7.05571 18.944 5.35323 16.7666 4.91767C16.3947 4.84333 16.0085 4.93141 15.7051 5.15888L13.1436 7.07978C13.0681 7.13638 12.988 7.19774 12.9053 7.24775C12.3489 7.58383 11.6511 7.58381 11.0947 7.24775C11.0121 7.19776 10.9319 7.13635 10.8564 7.07978L8.29492 5.15888C7.99144 4.93143 7.6053 4.84331 7.2334 4.91767C5.05593 5.35321 3.35363 7.05567 2.91797 9.2331L2.85254 9.56025C2.80678 9.78906 2.81771 10.0252 2.87891 10.2497H1.34961C1.30636 9.92375 1.31686 9.59121 1.38184 9.2663L1.44727 8.93915C2.00166 6.16785 4.16811 4.00124 6.93945 3.44697C7.72986 3.28893 8.55043 3.47512 9.19531 3.95868L11.7568 5.87958C11.8031 5.91425 11.8299 5.93499 11.8506 5.9499C11.8624 5.95844 11.869 5.96225 11.8711 5.96357C11.9505 6.01138 12.0495 6.0114 12.1289 5.96357C12.1309 5.9623 12.1374 5.95858 12.1494 5.9499C12.1701 5.93497 12.1969 5.91432 12.2432 5.87958L14.8047 3.95868Z" fill="black"/>
<path d="M10.8535 13.1149L11.3291 12.1647L11.5361 11.7497H15V13.2497H12.4639L11.1465 15.8835L7.05469 10.7692L5.40137 13.2497H0.5V11.7497H4.59863L6.94531 8.23017L10.8535 13.1149Z" fill="black"/>
</svg>
