<svg width="24" height="24" viewBox="0 0 24 24" fill="none" xmlns="http://www.w3.org/2000/svg">
<path fill-rule="evenodd" clip-rule="evenodd" d="M5.62305 3.44346C6.82783 2.96156 8.17217 2.96156 9.37695 3.44346C10.2061 3.77525 10.75 4.57867 10.75 5.47178V18.5284C10.75 19.4216 10.2061 20.2249 9.37695 20.5567C8.17215 21.0387 6.82785 21.0387 5.62305 20.5567C4.79386 20.2249 4.25 19.4216 4.25 18.5284V5.47178C4.25005 4.57867 4.79387 3.77525 5.62305 3.44346ZM8.81934 4.83603C7.97232 4.49731 7.02768 4.49731 6.18066 4.83603C5.92083 4.93997 5.75005 5.19193 5.75 5.47178V18.5284C5.75 18.8083 5.92081 19.0602 6.18066 19.1642C7.02771 19.5029 7.97229 19.5029 8.81934 19.1642C9.07919 19.0602 9.25 18.8083 9.25 18.5284V5.47178C9.24995 5.19193 9.07917 4.93997 8.81934 4.83603Z" fill="black"/>
<path fill-rule="evenodd" clip-rule="evenodd" d="M14.623 3.44346C15.8278 2.96156 17.1722 2.96156 18.377 3.44346C19.2061 3.77525 19.75 4.57867 19.75 5.47178V18.5284C19.75 19.4216 19.2061 20.2249 18.377 20.5567C17.1722 21.0387 15.8278 21.0387 14.623 20.5567C13.7939 20.2249 13.25 19.4216 13.25 18.5284V5.47178C13.25 4.57867 13.7939 3.77525 14.623 3.44346ZM17.8193 4.83603C16.9723 4.49731 16.0277 4.49731 15.1807 4.83603C14.9208 4.93997 14.75 5.19193 14.75 5.47178V18.5284C14.75 18.8083 14.9208 19.0602 15.1807 19.1642C16.0277 19.5029 16.9723 19.5029 17.8193 19.1642C18.0792 19.0602 18.25 18.8083 18.25 18.5284V5.47178C18.25 5.19193 18.0792 4.93997 17.8193 4.83603Z" fill="black"/>
</svg>
