<svg width="24" height="24" viewBox="0 0 24 24" fill="none" xmlns="http://www.w3.org/2000/svg">
<path fill-rule="evenodd" clip-rule="evenodd" d="M11.9998 2.25C13.2801 2.25 14.5484 2.50225 15.7313 2.99219C16.914 3.48215 17.989 4.2002 18.8943 5.10547C19.7996 6.01076 20.5176 7.08575 21.0076 8.26855C21.4976 9.45148 21.7498 10.7196 21.7498 12C21.7498 13.2804 21.4976 14.5485 21.0076 15.7314C20.5176 16.9142 19.7996 17.9892 18.8943 18.8945C17.989 19.7998 16.914 20.5178 15.7313 21.0078C14.5484 21.4978 13.2801 21.75 11.9998 21.75C9.85356 21.75 7.76699 21.0419 6.06426 19.7354C4.36154 18.4288 3.13733 16.5966 2.58184 14.5234L2.58086 14.5176C2.25079 13.2827 2.166 11.9949 2.33282 10.7275C2.49994 9.45813 2.91628 8.23383 3.55645 7.125L3.64239 7.00488C3.73937 6.89457 3.86756 6.814 4.01153 6.77539C4.20358 6.72396 4.40866 6.75121 4.58086 6.85059L8.47735 9.10059C8.83607 9.30769 8.95887 9.76628 8.75176 10.125C8.50562 10.5514 8.3463 11.0226 8.28203 11.5107C8.2178 11.9989 8.25031 12.4951 8.37774 12.9707C8.59135 13.7678 9.06202 14.4721 9.7166 14.9746C10.3715 15.4771 11.1744 15.75 11.9998 15.75C12.4922 15.75 12.9804 15.6533 13.4354 15.4648C13.8902 15.2764 14.3031 14.9995 14.6512 14.6514C14.9993 14.3032 15.2762 13.8904 15.4647 13.4355C15.6531 12.9806 15.7498 12.4925 15.7498 12C15.7498 11.5075 15.6531 11.0194 15.4647 10.5645C15.2762 10.1096 14.9993 9.69676 14.6512 9.34863C14.3031 9.00053 13.8902 8.72359 13.4354 8.53516C12.9804 8.34674 12.4922 8.25 11.9998 8.25C11.801 8.24995 11.6101 8.17088 11.4695 8.03027C11.3289 7.88963 11.2498 7.69887 11.2498 7.5V3C11.2498 2.80113 11.3289 2.61037 11.4695 2.46973C11.6101 2.32912 11.801 2.25005 11.9998 2.25ZM4.2586 14.8496C4.79572 16.3088 5.73574 17.5921 6.97735 18.5449C8.21877 19.4975 9.70165 20.0725 11.2498 20.2139V17.1943C10.3639 17.0664 9.52025 16.715 8.80352 16.165C8.08668 15.6149 7.52839 14.8912 7.17559 14.0684L4.2586 14.8496ZM12.7498 6.80371C13.1811 6.86597 13.6042 6.98194 14.0086 7.14941C14.6455 7.41324 15.2242 7.80062 15.7117 8.28809C16.1992 8.77558 16.5866 9.35428 16.8504 9.99121C17.1141 10.6281 17.2498 11.3107 17.2498 12C17.2498 12.6893 17.1141 13.3719 16.8504 14.0088C16.5866 14.6457 16.1992 15.2244 15.7117 15.7119C15.2242 16.1994 14.6455 16.5868 14.0086 16.8506C13.6042 17.018 13.1811 17.1331 12.7498 17.1953V20.2139C13.576 20.1384 14.3879 19.9406 15.157 19.6221C16.1579 19.2075 17.0677 18.6 17.8338 17.834C18.5998 17.0679 19.2073 16.1581 19.6219 15.1572C20.0365 14.1563 20.2498 13.0834 20.2498 12C20.2498 10.9166 20.0365 9.84371 19.6219 8.84277C19.2073 7.84188 18.5998 6.93207 17.8338 6.16602C17.0677 5.39999 16.1579 4.79251 15.157 4.37793C14.3879 4.05936 13.576 3.86059 12.7498 3.78516V6.80371ZM4.51055 8.54199C4.16278 9.29519 3.92881 10.0975 3.82012 10.9229C3.71151 11.7478 3.73012 12.5832 3.8709 13.4004L6.78692 12.6201C6.73543 12.1873 6.73759 11.7485 6.79473 11.3145C6.85192 10.8802 6.96293 10.4557 7.12481 10.0508L4.51055 8.54199Z" fill="black"/>
</svg>
