<svg width="21.9987" height="21.0635" viewBox="0 0 21.9987 21.0635" fill="none" xmlns="http://www.w3.org/2000/svg">
<path id="Vector" fill-rule="evenodd" clip-rule="evenodd" d="M11.1272 0.00488281C11.7525 0.0583042 12.1648 0.499691 12.4534 0.917969C12.765 1.36974 13.086 2.02374 13.4651 2.79199L14.7337 5.36133C14.8535 5.60414 14.922 5.74143 14.9817 5.83887C15.0082 5.88207 15.0253 5.90429 15.0345 5.91504C15.0385 5.91977 15.0413 5.92286 15.0423 5.92383L15.0433 5.9248C15.0442 5.92534 15.049 5.92719 15.055 5.92969C15.068 5.93512 15.0947 5.94519 15.1438 5.95703C15.2549 5.98372 15.4066 6.00604 15.6741 6.04492L18.5091 6.45703C19.3569 6.58022 20.0788 6.68312 20.6048 6.83984C21.1242 6.9947 21.7114 7.27609 21.927 7.93945C22.1426 8.60298 21.8334 9.1758 21.5042 9.60645C21.1708 10.0425 20.6471 10.5493 20.0335 11.1475L17.9817 13.1475C17.7879 13.3364 17.679 13.4443 17.6048 13.5312C17.5717 13.57 17.5555 13.5935 17.5481 13.6055C17.5449 13.6108 17.5437 13.6142 17.5433 13.6152L17.5423 13.6162C17.542 13.6174 17.5409 13.6224 17.5403 13.6289C17.5392 13.643 17.5383 13.671 17.5423 13.7217C17.5512 13.8357 17.5765 13.9868 17.6224 14.2539L18.1067 17.0771C18.2516 17.9219 18.3765 18.6406 18.3899 19.1895C18.4031 19.7313 18.3175 20.3762 17.7532 20.7861C17.1889 21.196 16.5486 21.0785 16.0374 20.8984C15.5196 20.7161 14.875 20.3753 14.1165 19.9766L11.5813 18.6436C11.3419 18.5177 11.2055 18.447 11.0999 18.4033C11.053 18.3839 11.0257 18.3753 11.012 18.3721C11.0064 18.3708 11.0027 18.3703 11.0013 18.3701H10.9974C10.9957 18.3703 10.992 18.3708 10.9866 18.3721C10.9728 18.3754 10.9455 18.384 10.8987 18.4033C10.7932 18.4471 10.6566 18.5177 10.4173 18.6436L7.88212 19.9766C7.12359 20.3753 6.47897 20.7161 5.96122 20.8984C5.44996 21.0784 4.80971 21.1961 4.2454 20.7861C3.68135 20.3762 3.59551 19.7312 3.60868 19.1895C3.62209 18.6407 3.747 17.9219 3.89189 17.0771L4.37626 14.2539C4.42207 13.9868 4.44741 13.8357 4.45634 13.7217C4.46031 13.6709 4.45943 13.643 4.45829 13.6289C4.45775 13.6223 4.45655 13.6183 4.45634 13.6172L4.45536 13.6152C4.45487 13.6141 4.45362 13.6107 4.45048 13.6055C4.44311 13.5934 4.42688 13.57 4.39384 13.5312C4.31964 13.4443 4.21074 13.3364 4.01689 13.1475L1.96513 11.1475C1.35152 10.5493 0.827804 10.0425 0.494425 9.60645C0.165242 9.17584 -0.143931 8.60285 0.0715733 7.93945L0.115519 7.81934C0.359512 7.24128 0.906889 6.98506 1.39384 6.83984C1.91982 6.68309 2.64172 6.58023 3.48954 6.45703L6.3245 6.04492C6.592 6.00605 6.7437 5.98369 6.85478 5.95703C6.90381 5.94524 6.93045 5.93516 6.94364 5.92969C6.94932 5.92732 6.95312 5.92547 6.95439 5.9248L6.95634 5.92383C6.95715 5.92307 6.95991 5.91997 6.96415 5.91504C6.97332 5.90436 6.9903 5.88219 7.01689 5.83887C7.07665 5.74144 7.14508 5.60418 7.26493 5.36133L8.53349 2.79199C8.91263 2.02377 9.2336 1.36976 9.54521 0.917969C9.85299 0.471832 10.3018 0.000147648 10.9993 0L11.1272 0.00488281ZM10.9993 1.51172C10.9618 1.54052 10.8896 1.6101 10.7796 1.76953C10.5454 2.10915 10.28 2.64202 9.87821 3.45605L8.61064 6.02539C8.50273 6.24403 8.40021 6.45341 8.29618 6.62305C8.18411 6.80574 8.0439 6.98749 7.8372 7.1377C7.63044 7.28786 7.41376 7.36491 7.20536 7.41504C7.01203 7.46148 6.78134 7.49428 6.54032 7.5293L3.70439 7.94141C2.8061 8.07194 2.21685 8.1595 1.82157 8.27734C1.63628 8.33263 1.54798 8.37947 1.50907 8.40625C1.52464 8.45061 1.56773 8.54081 1.68583 8.69531C1.93637 9.02301 2.36191 9.43956 3.012 10.0732L5.06376 12.0732C5.23841 12.2435 5.40622 12.4062 5.53544 12.5576C5.67444 12.7206 5.80415 12.9095 5.8831 13.1523C5.9621 13.3955 5.96819 13.6251 5.95146 13.8389C5.93591 14.0374 5.89602 14.2674 5.85478 14.5078L5.3704 17.3311C5.21689 18.2261 5.11778 18.8131 5.10771 19.2256C5.10302 19.4175 5.12068 19.5156 5.13407 19.5615C5.18126 19.5603 5.28037 19.5477 5.46317 19.4834C5.85227 19.3464 6.38032 19.0709 7.18388 18.6484L9.72001 17.3154C9.93573 17.202 10.1417 17.0927 10.3255 17.0166C10.5235 16.9347 10.7438 16.8702 10.9993 16.8701C11.2548 16.8701 11.4751 16.9347 11.6731 17.0166C11.8569 17.0926 12.0629 17.202 12.2786 17.3154L14.8147 18.6484C15.6182 19.0709 16.1463 19.3463 16.5354 19.4834C16.7168 19.5472 16.8158 19.5601 16.8636 19.5615C16.877 19.5158 16.8956 19.418 16.8909 19.2256C16.8808 18.8131 16.7817 18.2261 16.6282 17.3311L16.1438 14.5078C16.1026 14.2674 16.0627 14.0373 16.0472 13.8389C16.0304 13.6251 16.0366 13.3954 16.1155 13.1523C16.1944 12.9096 16.3242 12.7206 16.4632 12.5576C16.5924 12.4062 16.7602 12.2435 16.9349 12.0732L18.9866 10.0732C19.6367 9.43957 20.0622 9.02301 20.3128 8.69531C20.4306 8.54118 20.4729 8.45076 20.4886 8.40625C20.4492 8.37937 20.3611 8.33225 20.177 8.27734C19.7817 8.15953 19.1925 8.07193 18.2942 7.94141L15.4583 7.5293C15.2173 7.49427 14.9866 7.4615 14.7933 7.41504C14.5849 7.3649 14.3681 7.28789 14.1614 7.1377C13.9548 6.98748 13.8145 6.80572 13.7024 6.62305C13.5984 6.45341 13.4959 6.24402 13.388 6.02539L12.1204 3.45605C11.7186 2.64198 11.4533 2.10913 11.219 1.76953C11.1089 1.60992 11.0368 1.54041 10.9993 1.51172Z" fill="#000000"/>
</svg>


