<svg width="24" height="24" viewBox="0 0 24 24" fill="none" xmlns="http://www.w3.org/2000/svg">
<path fill-rule="evenodd" clip-rule="evenodd" d="M6.15723 2.8731C6.56329 2.65978 6.99699 2.67531 7.38086 2.7481C7.8026 2.82808 8.31775 3.00867 8.89942 3.21002L16.8193 5.95123C17.1134 6.05302 17.2982 6.11708 17.4697 6.19146C18.7492 6.74634 19.72 7.83541 20.125 9.16998C20.1793 9.34892 20.2216 9.54005 20.2891 9.8438C20.3451 10.096 20.3765 10.2383 20.4033 10.3809C20.6048 11.4509 20.6048 12.5493 20.4033 13.6192C20.3765 13.7618 20.3451 13.9041 20.2891 14.1563C20.2216 14.4601 20.1793 14.6512 20.125 14.8301C19.7201 16.1647 18.7493 17.2538 17.4697 17.8086C17.2982 17.883 17.1134 17.9471 16.8193 18.0489L8.89942 20.7901C8.31775 20.9914 7.80261 21.172 7.38086 21.252C6.94226 21.3352 6.43852 21.344 5.98536 21.0215C5.5321 20.6988 5.37545 20.2192 5.31055 19.7774C5.24821 19.3527 5.25001 18.8069 5.25001 18.1915V5.80865C5.25001 5.19319 5.2482 4.64738 5.31055 4.22271C5.37546 3.78091 5.5321 3.30132 5.98536 2.97857L6.15723 2.8731ZM6.86426 4.20123C6.86079 4.20164 6.8577 4.20181 6.85547 4.2022C6.85451 4.20397 6.85381 4.20643 6.85254 4.20904C6.83868 4.2377 6.81492 4.30445 6.79493 4.44048C6.75234 4.73044 6.75001 5.14447 6.75001 5.80865V18.1915C6.75001 18.8556 6.75234 19.2697 6.79493 19.5596C6.81491 19.6956 6.83867 19.7624 6.85254 19.7911C6.85364 19.7933 6.85547 19.7969 6.85547 19.7969C6.85773 19.7973 6.8607 19.7985 6.86426 19.7989C6.896 19.8026 6.96673 19.8039 7.10157 19.7784C7.38951 19.7237 7.78159 19.5894 8.40919 19.3721L16.3291 16.6309C16.6452 16.5215 16.7661 16.479 16.8731 16.4327C17.7486 16.053 18.4134 15.3078 18.6904 14.3946C18.7243 14.283 18.7526 14.1579 18.8252 13.8311C18.8832 13.5699 18.9084 13.455 18.9297 13.3419C19.0966 12.4553 19.0966 11.5448 18.9297 10.6583C18.9084 10.5451 18.8832 10.4302 18.8252 10.169C18.7526 9.84217 18.7243 9.71709 18.6904 9.60552C18.4134 8.69232 17.7486 7.94712 16.8731 7.56744C16.7661 7.52108 16.6452 7.47861 16.3291 7.36919L8.40919 4.62798C7.7816 4.41074 7.38951 4.27636 7.10157 4.22173C6.96674 4.19617 6.896 4.19752 6.86426 4.20123Z" fill="black"/>
</svg>
