<svg width="24" height="24" viewBox="0 0 24 24" fill="none" xmlns="http://www.w3.org/2000/svg">
<path fill-rule="evenodd" clip-rule="evenodd" d="M9.43198 2.66777C9.68862 2.52544 10.0054 2.54636 10.2416 2.72051C10.4777 2.89504 10.5903 3.19198 10.5296 3.47929C10.1196 5.41654 10.1884 7.42998 10.7347 9.34258C11.2767 11.2394 12.7598 12.7225 14.6566 13.2645C16.5691 13.8109 18.5822 13.8787 20.5199 13.4686C20.8069 13.4078 21.103 13.52 21.2777 13.7557C21.4522 13.9917 21.4735 14.3084 21.3314 14.5652L21.0648 15.0467L21.0638 15.0477C19.7472 17.4175 17.8329 19.3975 15.516 20.7928L15.0472 21.0633C13.1519 22.1161 10.8469 22.1163 8.95151 21.0633C6.4241 19.659 4.34013 17.5752 2.93589 15.0477C1.88303 13.1523 1.88302 10.8473 2.93589 8.95195C4.34013 6.42449 6.42384 4.33971 8.95151 2.93535L9.43198 2.66777ZM8.82261 4.76347C6.92497 6.00344 5.35227 7.69006 4.24644 9.68047C3.44535 11.1227 3.44541 12.8769 4.24644 14.3191C5.51466 16.6019 7.39729 18.4844 9.68003 19.7527C11.1222 20.5539 12.8764 20.5538 14.3187 19.7527C16.3097 18.6466 17.9956 17.0729 19.2357 15.1746C17.5645 15.3264 15.8722 15.1709 14.2445 14.7059C11.8495 14.0215 9.97764 12.1497 9.29331 9.75469C8.82842 8.12731 8.6711 6.43471 8.82261 4.76347Z" fill="black"/>
</svg>
