<svg xmlns="http://www.w3.org/2000/svg" preserveAspectRatio="none" width="100%" height="100%" overflow="visible" viewBox="0 0 238.679 497.399" fill="none" color="#000000"><title>Female Back Back Overlay Candidate</title><g id="FemaleBackBackOverlayCandidate" fill-opacity="1" stroke-opacity="1"><path id="Vector_35" d="M123.065 166.647C120.943 169.712 119.293 171.48 119.293 171.48C119.293 171.48 117.643 169.712 115.521 166.647C115.757 169.005 117.171 186.097 104.205 195.35C104.205 195.35 100.02 229.77 119.352 229.77C138.684 229.77 134.322 195.35 134.322 195.35C121.474 186.097 122.829 169.005 123.065 166.647Z" fill="currentColor" stroke="currentColor" stroke-miterlimit="10" stroke-linejoin="round" />
<path id="Vector_38" d="M119.531 92.0293C72.557 92.0883 76.3291 114.249 76.3291 114.249C76.3291 114.249 78.8634 121.852 80.5137 136.41C81.221 142.598 82.8712 150.614 84.5215 158.217C88.7061 170.064 100.199 181.203 98.3131 187.156C98.3131 187.156 93.8338 195.23 91.5352 204.896C95.1893 212.617 101.142 221.635 109.924 225.643C101.731 216.507 104.266 195.348 104.266 195.348C117.232 186.095 115.818 168.944 115.582 166.645C117.704 169.71 119.354 171.478 119.354 171.478C119.354 171.478 121.004 169.71 123.126 166.645C122.89 169.003 121.476 186.095 134.442 195.348C134.442 195.348 137.153 216.743 128.784 225.819C137.448 222.047 143.342 213.383 147.114 205.721C145.051 195.702 140.395 187.156 140.395 187.156C138.332 180.614 152.418 167.824 155.247 154.681C155.247 154.681 155.306 154.622 155.424 154.563C156.78 148.139 158.077 141.655 158.666 136.469C160.316 121.852 162.851 114.308 162.851 114.308C162.851 114.308 166.505 92.0883 119.531 92.0293Z" fill="currentColor" stroke="currentColor" stroke-miterlimit="10" stroke-linejoin="round" />
<path id="Vector_39" d="M132.318 134.705C152.534 138.536 160.137 110.835 160.137 110.835C160.137 110.835 155.953 99.8728 141.748 97.9278C127.485 95.9829 132.318 134.705 132.318 134.705Z" fill="currentColor" stroke="currentColor" stroke-miterlimit="10" stroke-linejoin="round" />
<path id="Vector_40" d="M106.326 134.708C86.1102 138.539 78.5072 110.838 78.5072 110.838C78.5072 110.838 82.6918 99.8751 96.8959 97.9301C111.159 95.9851 106.326 134.708 106.326 134.708Z" fill="currentColor" stroke="currentColor" stroke-miterlimit="10" stroke-linejoin="round" />
<path id="Vector_41" d="M119.354 50.0722C112.694 50.0722 109.747 52.6655 109.747 52.6655C109.747 69.1093 110.1 72.5867 102.556 78.2448C95.0121 83.9618 91.8884 88.2643 81.751 88.9715L96.9571 97.9302C104.089 105.121 106.328 122.566 106.505 140.248C106.682 157.929 119.354 171.485 119.354 171.485C119.354 171.485 132.025 157.87 132.202 140.248C132.379 122.566 134.619 105.121 141.75 97.9302L156.956 88.9715C146.878 88.2643 143.695 83.9618 136.151 78.2448C128.607 72.5277 128.961 69.1093 128.961 52.6655C128.961 52.6655 126.014 50.0722 119.354 50.0722Z" fill="currentColor" stroke="currentColor" stroke-miterlimit="10" stroke-linejoin="round" />
<path id="Vector_42" d="M160.138 110.835C160.138 110.835 152.594 138.536 132.319 134.705C148.527 140.54 159.372 129.459 159.372 129.459C159.372 129.459 170.688 113.074 160.138 110.835Z" fill="currentColor" stroke="currentColor" stroke-miterlimit="10" stroke-linejoin="round" />
<path id="Vector_43" d="M78.5682 110.835C78.5682 110.835 86.1123 138.536 106.387 134.705C90.1791 140.54 79.3344 129.459 79.3344 129.459C79.3344 129.459 68.0183 113.074 78.5682 110.835Z" fill="currentColor" stroke="currentColor" stroke-miterlimit="10" stroke-linejoin="round" />
</g></svg>