<svg xmlns="http://www.w3.org/2000/svg" preserveAspectRatio="none" width="100%" height="100%" overflow="visible" viewBox="0 0 272.609 496.989" fill="none" color="#000000"><title>Male Front Abs Overlay Candidate</title><g id="MaleFrontAbsOverlayCandidate" fill-opacity="1" stroke-opacity="1"><path id="Vector_45" d="M156.066 138.701C156.066 138.701 162.287 140.729 162.226 140.729C154.907 139.07 149.357 135.322 147.04 133.908C146.308 133.478 145.332 132.986 144.356 132.311H144.295C140.148 129.853 136.306 135.998 136.306 141.405C136.306 146.813 140.697 148.287 142.405 147.919C144.051 147.55 151.675 148.349 156.127 150.438C160.64 152.528 161.311 151.176 161.006 147.058C160.701 142.88 158.079 139.131 156.066 138.701Z" fill="currentColor" stroke="currentColor" stroke-miterlimit="10" stroke-linejoin="round" />
<path id="Vector_46" d="M157.896 151.113C157.347 150.928 156.798 150.683 156.127 150.375C152.529 148.716 146.857 147.856 143.929 147.794C141.368 147.856 136.306 149.699 136.306 155.168C136.306 160.699 137.892 167.274 139.05 169.118C140.209 170.961 142.832 170.961 146.735 169.793C150.638 168.626 156.371 167.643 159.481 168.319C162.592 168.995 163.69 164.755 162.226 158.671C160.823 152.649 159.664 151.912 157.896 151.113Z" fill="currentColor" stroke="currentColor" stroke-miterlimit="10" stroke-linejoin="round" />
<path id="Vector_47" d="M160.092 168.444C159.909 168.444 159.726 168.444 159.543 168.383C158.994 168.322 158.323 168.26 157.47 168.137C154.298 168.076 149.907 168.875 146.797 169.858C146.065 170.104 145.394 170.226 144.784 170.349C141.491 171.394 136.368 173.176 136.368 177.478C136.368 181.779 136.368 180.919 136.368 184.114C136.368 187.248 139.905 196.281 143.93 194.008C147.955 191.734 154.847 189.092 157.47 188.477C160.092 187.863 161.617 185.405 162.349 177.662C162.958 170.472 162.41 168.813 160.092 168.444Z" fill="currentColor" stroke="currentColor" stroke-miterlimit="10" stroke-linejoin="round" />
<path id="Vector_48" d="M157.408 188.535C156.493 188.842 155.334 189.15 154.054 189.58C150.882 190.686 146.613 192.468 143.868 194.066C140.697 196.401 136.306 200.764 136.306 207.646C136.306 214.528 136.306 226.88 136.306 235.298C136.306 243.717 145.637 236.282 150.882 224.668C156.127 213.054 160.518 200.211 160.945 195.172C161.311 190.071 160.701 187.49 157.408 188.535Z" fill="currentColor" stroke="currentColor" stroke-miterlimit="10" stroke-linejoin="round" />
<path id="Vector_49" d="M116.543 138.701C116.543 138.701 110.322 140.729 110.383 140.729C117.702 139.07 123.252 135.322 125.57 133.908C126.301 133.478 127.277 132.986 128.253 132.311H128.314C132.461 129.853 136.303 135.998 136.303 141.405C136.303 146.813 131.912 148.287 130.205 147.919C128.558 147.55 120.934 148.349 116.482 150.438C111.969 152.528 111.298 151.176 111.603 147.058C111.908 142.88 114.47 139.131 116.543 138.701Z" fill="currentColor" stroke="currentColor" stroke-miterlimit="10" stroke-linejoin="round" />
<path id="Vector_50" d="M114.715 151.113C115.264 150.928 115.813 150.683 116.484 150.375C120.082 148.716 125.754 147.856 128.682 147.794C131.243 147.856 136.305 149.699 136.305 155.168C136.305 160.699 134.72 167.274 133.561 169.118C132.402 170.961 129.78 170.961 125.876 169.793C121.973 168.626 116.24 167.643 113.13 168.319C110.019 168.995 108.921 164.755 110.385 158.671C111.788 152.649 112.947 151.912 114.715 151.113Z" fill="currentColor" stroke="currentColor" stroke-miterlimit="10" stroke-linejoin="round" />
<path id="Vector_51" d="M112.518 168.444C112.701 168.444 112.884 168.444 113.067 168.383C113.616 168.322 114.287 168.26 115.14 168.137C118.312 168.076 122.703 168.875 125.813 169.858C126.545 170.104 127.216 170.226 127.826 170.349C131.119 171.394 136.242 173.176 136.242 177.478C136.242 181.779 136.242 180.919 136.242 184.114C136.242 187.248 132.705 196.281 128.68 194.008C124.655 191.734 117.763 189.092 115.14 188.477C112.518 187.863 110.993 185.405 110.261 177.662C109.651 170.472 110.2 168.813 112.518 168.444Z" fill="currentColor" stroke="currentColor" stroke-miterlimit="10" stroke-linejoin="round" />
<path id="Vector_52" d="M115.203 188.535C116.118 188.842 117.277 189.15 118.557 189.58C121.729 190.686 125.998 192.468 128.742 194.066C131.914 196.401 136.305 200.764 136.305 207.646C136.305 214.528 136.305 226.88 136.305 235.298C136.305 243.717 126.974 236.282 121.729 224.668C116.484 213.054 112.093 200.211 111.666 195.172C111.3 190.071 111.91 187.49 115.203 188.535Z" fill="currentColor" stroke="currentColor" stroke-miterlimit="10" stroke-linejoin="round" />
</g></svg>