<svg xmlns="http://www.w3.org/2000/svg" preserveAspectRatio="none" width="100%" height="100%" overflow="visible" viewBox="0 0 238.679 497.399" fill="none" color="#000000"><title>Female Back Hamstring Overlay Candidate</title><g id="FemaleBackHamstringOverlayCandidate" fill-opacity="1" stroke-opacity="1"><path id="Vector_11" d="M125.127 247.277C125.127 247.277 120.648 260.244 125.127 280.577C129.607 300.911 131.198 316.707 130.432 330.557C129.607 344.349 135.972 359.437 135.972 359.437C135.972 359.437 145.461 352.07 149.528 332.561C153.594 313.052 147.524 244.448 147.524 244.448L125.127 247.277Z" fill="currentColor" stroke="currentColor" stroke-miterlimit="10" stroke-linejoin="round" />
<path id="Vector_12" d="M144.046 257.589C146.05 268.375 141.217 315.938 146.462 335.8C151.767 355.721 160.254 365.034 160.254 365.034C158.073 342.696 164.556 336.331 169.684 315.231C173.161 300.909 173.397 274.445 170.509 255.232C166.03 225.586 144.046 257.589 144.046 257.589Z" fill="currentColor" stroke="currentColor" stroke-miterlimit="10" stroke-linejoin="round" />
<path id="Vector_13" d="M170.155 229.415C170.155 229.415 143.633 249.336 155.303 253.108C169.094 257.588 169.684 315.229 169.684 315.229C182.414 256.35 170.214 235.132 170.155 229.415Z" fill="currentColor" stroke="currentColor" stroke-miterlimit="10" stroke-linejoin="round" />
<path id="Vector_14" d="M130.139 255.294C130.139 255.294 124.776 265.549 128.135 296.609" stroke="currentColor" stroke-miterlimit="10" stroke-linejoin="round" />
<path id="Vector_15" d="M113.987 247.277C113.987 247.277 118.467 260.244 113.987 280.577C109.508 300.911 107.917 316.707 108.683 330.557C109.508 344.349 103.143 359.437 103.143 359.437C103.143 359.437 93.6536 352.07 89.5869 332.561C85.5201 313.052 91.5908 244.448 91.5908 244.448L113.987 247.277Z" fill="currentColor" stroke="currentColor" stroke-miterlimit="10" stroke-linejoin="round" />
<path id="Vector_16" d="M108.922 255.294C108.922 255.294 114.286 265.549 110.926 296.609" stroke="currentColor" stroke-miterlimit="10" stroke-linejoin="round" />
<path id="Vector_17" d="M95.0703 257.589C93.0664 268.375 97.8993 315.938 92.6538 335.8C87.3494 355.721 78.8623 365.034 78.8623 365.034C81.043 342.696 74.5598 336.331 69.4321 315.231C65.9548 300.909 65.719 274.445 68.607 255.232C73.0274 225.586 95.0703 257.589 95.0703 257.589Z" fill="currentColor" stroke="currentColor" stroke-miterlimit="10" stroke-linejoin="round" />
<path id="Vector_18" d="M68.9013 229.415C68.9013 229.415 95.4236 249.336 83.7538 253.108C69.9622 257.588 69.3729 315.229 69.3729 315.229C56.6422 256.35 68.8424 235.132 68.9013 229.415Z" fill="currentColor" stroke="currentColor" stroke-miterlimit="10" stroke-linejoin="round" />
</g></svg>