<svg xmlns="http://www.w3.org/2000/svg" preserveAspectRatio="none" width="100%" height="100%" overflow="visible" viewBox="0 0 286.668 497" fill="none" color="#000000"><title>Male Back Hamstring Overlay Candidate</title><g id="MaleBackHamstringOverlayCandidate" fill-opacity="1" stroke-opacity="1"><path id="Vector_9" d="M136.005 285.737C136.005 285.737 128.864 301.756 127.871 320.693C126.878 339.568 121.538 368.998 121.538 368.998C121.538 368.998 108.996 355.339 109.803 335.222C110.61 315.167 103.843 289.276 119.737 274.934C135.632 260.529 136.005 285.737 136.005 285.737Z" fill="currentColor" stroke="currentColor" stroke-miterlimit="10" stroke-linejoin="round" />
<path id="Vector_10" d="M136.44 298.463C133.46 314.544 133.088 340.559 129.3 353.473C125.513 366.388 122.533 375.701 122.533 375.701C122.533 375.701 121.725 373.528 121.539 368.933C121.353 364.339 117.255 339.131 124.644 305.789C127.127 294.613 131.287 283.934 132.901 281.202C135.571 276.67 137.186 293.433 136.44 298.463Z" fill="currentColor" stroke="currentColor" stroke-miterlimit="10" stroke-linejoin="round" />
<path id="Vector_11" d="M119.739 274.868C119.739 274.868 111.605 285.299 110.612 315.101C109.618 344.904 109.991 353.224 96.145 374.086C96.145 374.086 99.1252 354.652 97.1384 345.09C95.1516 335.529 94.6548 334.101 93.2889 324.042C91.9229 313.984 85.9624 268.535 99.2494 267.293C112.536 266.176 119.739 274.868 119.739 274.868Z" fill="currentColor" stroke="currentColor" stroke-miterlimit="10" stroke-linejoin="round" />
<path id="Vector_12" d="M99.4979 231.902C99.4979 231.902 92.2957 251.15 90.7435 276.358C89.1912 301.566 93.227 324.042 93.227 324.042C93.227 324.042 90.433 294.487 98.3183 273.005C100.553 266.92 124.706 274.309 124.706 274.309L99.4979 231.902Z" fill="currentColor" stroke="currentColor" stroke-miterlimit="10" stroke-linejoin="round" />
<path id="Vector_13" d="M150.596 285.737C150.596 285.737 157.736 301.756 158.729 320.693C159.723 339.568 165.062 368.998 165.062 368.998C165.062 368.998 177.604 355.339 176.797 335.222C175.99 315.167 182.757 289.276 166.863 274.934C150.968 260.529 150.596 285.737 150.596 285.737Z" fill="currentColor" stroke="currentColor" stroke-miterlimit="10" stroke-linejoin="round" />
<path id="Vector_14" d="M150.16 298.463C153.14 314.544 153.513 340.559 157.3 353.473C161.088 366.388 164.068 375.701 164.068 375.701C164.068 375.701 164.875 373.528 165.061 368.933C165.248 364.339 169.345 339.131 161.957 305.789C159.473 294.613 155.313 283.934 153.699 281.202C151.091 276.67 149.415 293.433 150.16 298.463Z" fill="currentColor" stroke="currentColor" stroke-miterlimit="10" stroke-linejoin="round" />
<path id="Vector_15" d="M166.861 274.868C166.861 274.868 174.995 285.299 175.988 315.101C176.982 344.904 176.609 353.224 190.455 374.086C190.455 374.086 187.475 354.652 189.462 345.09C191.449 335.529 191.945 334.101 193.311 324.042C194.677 313.984 200.638 268.535 187.351 267.293C174.064 266.176 166.861 274.868 166.861 274.868Z" fill="currentColor" stroke="currentColor" stroke-miterlimit="10" stroke-linejoin="round" />
<path id="Vector_16" d="M187.106 231.902C187.106 231.902 194.308 251.15 195.86 276.358C197.412 301.566 193.377 324.042 193.377 324.042C193.377 324.042 196.171 294.487 188.285 273.005C186.05 266.92 161.898 274.309 161.898 274.309L187.106 231.902Z" fill="currentColor" stroke="currentColor" stroke-miterlimit="10" stroke-linejoin="round" />
</g></svg>