<svg xmlns="http://www.w3.org/2000/svg" preserveAspectRatio="none" width="100%" height="100%" overflow="visible" viewBox="0 0 272.609 496.989" fill="none" color="#000000"><title>Male Front Upper Leg Overlay Candidate</title><g id="MaleFrontUpperLegOverlayCandidate" fill-opacity="1" stroke-opacity="1"><path id="Vector_25" d="M138.014 256.622C138.014 256.622 138.563 277.761 141.674 289.682C144.723 301.604 147.163 314.631 147.163 319.916C147.163 325.2 183.695 245.254 163.447 228.048C143.259 210.842 138.014 256.622 138.014 256.622Z" fill="currentColor" stroke="currentColor" stroke-miterlimit="10" stroke-linejoin="round" />
<path id="Vector_26" d="M170.947 217.972C170.947 217.972 190.402 240.893 187.779 277.455L166.372 223.011L170.947 217.972Z" fill="currentColor" stroke="currentColor" stroke-miterlimit="10" stroke-linejoin="round" />
<path id="Vector_27" d="M185.463 268.73C185.463 268.73 194.367 293.679 188.024 311.991C181.682 330.241 178.998 340.012 177.168 342.347C175.4 344.682 170.094 339.827 171.74 330.241C173.387 320.655 185.463 268.73 185.463 268.73Z" fill="currentColor" stroke="currentColor" stroke-miterlimit="10" stroke-linejoin="round" />
<path id="Vector_28" d="M169.422 220.121C173.204 245.131 186.926 249.187 185.645 275.303C184.303 301.419 172.716 325.692 171.801 330.301C170.947 334.848 167.288 334.602 166.434 331.345C165.519 327.781 154.236 284.766 160.396 262.214C166.556 239.662 163.506 228.11 163.506 228.11C163.506 228.11 165.519 219.138 169.422 220.121Z" fill="currentColor" stroke="currentColor" stroke-miterlimit="10" stroke-linejoin="round" />
<path id="Vector_29" d="M165.58 327.969C167.409 335.65 165.458 344.929 161.006 346.097C156.553 347.264 146.307 342.717 147.222 321.333C148.076 299.948 156.919 273.156 159.969 263.754C163.018 254.475 165.58 327.969 165.58 327.969Z" fill="currentColor" stroke="currentColor" stroke-miterlimit="10" stroke-linejoin="round" />
<path id="Vector_30" d="M134.597 256.622C134.597 256.622 134.048 277.761 130.938 289.682C127.889 301.604 125.449 314.631 125.449 319.916C125.449 325.2 88.917 245.254 109.165 228.048C129.352 210.842 134.597 256.622 134.597 256.622Z" fill="currentColor" stroke="currentColor" stroke-miterlimit="10" stroke-linejoin="round" />
<path id="Vector_31" d="M101.602 217.972C101.602 217.972 82.1467 240.893 84.7692 277.455L106.176 223.011L101.602 217.972Z" fill="currentColor" stroke="currentColor" stroke-miterlimit="10" stroke-linejoin="round" />
<path id="Vector_32" d="M87.1482 268.73C87.1482 268.73 78.2439 293.679 84.5867 311.991C90.9295 330.241 93.613 340.012 95.4426 342.347C97.2113 344.682 102.517 339.827 100.871 330.241C99.2239 320.655 87.1482 268.73 87.1482 268.73Z" fill="currentColor" stroke="currentColor" stroke-miterlimit="10" stroke-linejoin="round" />
<path id="Vector_33" d="M103.189 220.121C99.4076 245.131 85.6852 249.187 86.966 275.303C88.3077 301.419 99.8955 325.692 100.81 330.301C101.664 334.848 105.323 334.602 106.177 331.345C107.092 327.781 118.375 284.766 112.215 262.214C106.055 239.662 109.105 228.11 109.105 228.11C109.105 228.11 107.092 219.138 103.189 220.121Z" fill="currentColor" stroke="currentColor" stroke-miterlimit="10" stroke-linejoin="round" />
<path id="Vector_34" d="M107.033 327.969C105.203 335.65 107.155 344.929 111.607 346.097C116.059 347.264 126.305 342.717 125.39 321.333C124.536 299.948 115.693 273.156 112.644 263.754C109.594 254.475 107.033 327.969 107.033 327.969Z" fill="currentColor" stroke="currentColor" stroke-miterlimit="10" stroke-linejoin="round" />
</g></svg>