<svg xmlns="http://www.w3.org/2000/svg" preserveAspectRatio="none" width="100%" height="100%" overflow="visible" viewBox="0 0 238.679 497.399" fill="none" color="#000000"><title>Female Back Shoulder Overlay Candidate</title><g id="FemaleBackShoulderOverlayCandidate" fill-opacity="1" stroke-opacity="1"><path id="Vector_45" d="M182.242 132.703C182.242 132.703 178.883 118.558 160.141 110.837C141.398 103.116 141.752 97.9292 141.752 97.9292C141.752 97.9292 151.123 89.8547 153.952 89.2653C156.781 88.6759 166.742 88.6759 170.396 92.7427C174.05 96.8094 180.121 112.664 180.946 118.734C181.771 124.805 182.242 132.703 182.242 132.703Z" fill="currentColor" stroke="currentColor" stroke-miterlimit="10" stroke-linejoin="round" />
<path id="Vector_46" d="M56.408 132.703C56.408 132.703 59.7675 118.558 78.5099 110.837C97.2522 103.116 96.8986 97.9292 96.8986 97.9292C96.8986 97.9292 87.5274 89.8547 84.6984 89.2653C81.8693 88.6759 71.9088 88.6759 68.2546 92.7427C64.6004 96.8094 58.5298 112.664 57.7046 118.734C56.9384 124.805 56.408 132.703 56.408 132.703Z" fill="currentColor" stroke="currentColor" stroke-miterlimit="10" stroke-linejoin="round" />
</g></svg>