<svg xmlns="http://www.w3.org/2000/svg" preserveAspectRatio="none" width="100%" height="100%" overflow="visible" viewBox="0 0 233.641 497.381" fill="none" color="#000000"><title>Female Front Upper Leg Overlay Candidate</title><g id="FemaleFrontUpperLegOverlayCandidate" fill-opacity="1" stroke-opacity="1"><path id="Vector_21" d="M160.012 205.332C162.024 209.726 147.138 212.79 140.587 219.67C133.517 227.185 128.862 229.093 121.563 247.42C118.862 265.052 123.862 278.696 126.448 296.156C128.805 312.227 127.195 316.621 128.172 330.438C129.149 344.198 144.897 341.018 144.897 335.121C144.897 335.121 162.484 210.998 160.012 205.332Z" fill="currentColor" stroke="currentColor" stroke-miterlimit="10" stroke-linejoin="round" />
<path id="Vector_22" d="M160.413 206.02C161.16 208.968 148.516 209.026 148.516 209.026C148.516 209.026 149.608 307.77 148.975 336.155C148.746 346.909 157.022 349.568 157.424 343.729C157.826 337.89 160.528 330.895 165.47 312.105C171.62 288.691 172.022 268.399 171.62 253.715C171.39 246.141 168.459 221.166 160.413 206.02Z" fill="currentColor" stroke="currentColor" stroke-miterlimit="10" stroke-linejoin="round" />
<path id="Vector_23" d="M146.562 217.758C146.907 281.236 123.401 298.869 128.803 334.597C130.067 342.98 143.171 349.281 144.953 335.117C144.896 335.117 153.689 228.569 146.562 217.758Z" fill="currentColor" stroke="currentColor" stroke-miterlimit="10" stroke-linejoin="round" />
<path id="Vector_24" d="M141.447 333.441C131.907 297.25 148.114 258.863 146.62 217.758C146.85 219.955 150.471 209.028 152.022 214.231C170.126 275.57 159.551 321.705 152.54 334.597C147.884 342.922 142.999 339.453 141.447 333.441Z" fill="currentColor" stroke="currentColor" stroke-miterlimit="10" stroke-linejoin="round" />
<path id="Vector_25" d="M132.254 233.484C132.254 233.484 120.931 259.905 123.977 282.278" stroke="currentColor" stroke-miterlimit="10" stroke-linejoin="round" />
<path id="Vector_26" d="M74.0876 205.332C72.076 209.726 86.9616 212.79 93.5135 219.67C100.583 227.185 105.238 229.093 112.537 247.42C115.238 265.052 110.238 278.696 107.652 296.156C105.295 312.227 106.905 316.621 105.928 330.438C104.951 344.198 89.203 341.018 89.203 335.121C89.203 335.121 71.6737 210.998 74.0876 205.332Z" fill="currentColor" stroke="currentColor" stroke-miterlimit="10" stroke-linejoin="round" />
<path id="Vector_27" d="M73.7442 206.018C72.9971 208.966 85.6412 209.024 85.6412 209.024C85.6412 209.024 84.5492 307.768 85.1814 336.154C85.4113 346.907 77.1351 349.566 76.7328 343.727C76.3305 337.888 73.6293 330.893 68.6866 312.104C62.537 288.69 62.1347 268.397 62.537 253.713C62.7669 246.14 65.698 221.165 73.7442 206.018Z" fill="currentColor" stroke="currentColor" stroke-miterlimit="10" stroke-linejoin="round" />
<path id="Vector_28" d="M87.5399 217.758C87.195 281.236 110.702 298.869 105.299 334.597C104.035 342.98 90.9308 349.281 89.1491 335.117C89.2066 335.117 80.4707 228.569 87.5399 217.758Z" fill="currentColor" stroke="currentColor" stroke-miterlimit="10" stroke-linejoin="round" />
<path id="Vector_29" d="M92.7117 333.441C102.252 297.25 86.0448 258.863 87.5391 217.758C87.3092 219.955 83.6884 209.028 82.1366 214.231C64.0326 275.571 74.6076 321.705 81.6194 334.597C86.2747 342.922 91.1024 339.453 92.7117 333.441Z" fill="currentColor" stroke="currentColor" stroke-miterlimit="10" stroke-linejoin="round" />
<path id="Vector_30" d="M101.906 233.484C101.906 233.484 113.228 259.905 110.182 282.278" stroke="currentColor" stroke-miterlimit="10" stroke-linejoin="round" />
</g></svg>