<svg xmlns="http://www.w3.org/2000/svg" preserveAspectRatio="none" width="100%" height="100%" overflow="visible" viewBox="0 0 286.668 497" fill="none" color="#000000"><title>Male Back Glute Overlay Candidate</title><g id="MaleBackGluteOverlayCandidate" fill-opacity="1" stroke-opacity="1"><path id="Vector_22" d="M143.331 251.399C143.331 259.533 140.041 268.66 129.299 273.068C118.558 277.414 98.3171 273.068 98.3171 273.068C100.304 266.735 95.6473 253.386 95.6473 239.727C95.6473 219.982 102.539 212.097 107.568 208.248C117.813 200.362 125.388 211.538 130.541 222.839C135.632 234.077 143.331 243.266 143.331 251.399Z" fill="currentColor" stroke="currentColor" stroke-miterlimit="10" stroke-linejoin="round" />
<path id="Vector_23" d="M143.332 251.399C143.332 259.533 146.622 268.66 157.364 273.068C168.105 277.476 188.346 273.068 188.346 273.068C186.359 266.735 191.016 253.386 191.016 239.727C191.016 219.982 184.124 212.097 179.095 208.248C168.85 200.362 161.275 211.538 156.122 222.839C150.969 234.077 143.332 243.266 143.332 251.399Z" fill="currentColor" stroke="currentColor" stroke-miterlimit="10" stroke-linejoin="round" />
</g></svg>