<svg xmlns="http://www.w3.org/2000/svg" preserveAspectRatio="none" width="100%" height="100%" overflow="visible" viewBox="0 0 233.641 497.381" fill="none" color="#000000"><title>Female Front Abs Overlay Candidate</title><g id="FemaleFrontAbsOverlayCandidate" fill-opacity="1" stroke-opacity="1"><path id="Vector_35" d="M120.584 195.567C117.998 196.203 117.078 194.006 117.078 191.578C117.078 188.514 117.078 185.161 117.078 180.015C117.193 175.101 119.147 172.789 121.446 172.962C131.446 172.962 132.711 176.142 133.113 178.108C133.573 180.247 135.757 191.983 120.584 195.567Z" fill="currentColor" stroke="currentColor" stroke-miterlimit="10" stroke-linejoin="round" />
<path id="Vector_36" d="M133.171 159.136C137.136 172.375 133.113 178.156 133.113 178.156C133.113 178.156 131.446 173.011 121.446 173.011C121.274 172.953 121.101 172.953 120.929 173.011C117.078 172.606 117.078 167.75 117.078 163.645C117.078 156.65 119.262 153.933 123.515 153.933C128.285 153.875 132.481 156.708 133.171 159.136Z" fill="currentColor" stroke="currentColor" stroke-miterlimit="10" stroke-linejoin="round" />
<path id="Vector_37" d="M133.17 159.143C131.619 157.178 128.285 153.882 123.515 153.882C117.48 153.824 117.078 154.807 117.078 147.928C117.078 147.349 117.078 145.268 117.078 144.806C117.078 140.932 119.722 138.042 125.297 141.279C130.814 144.517 134.377 155.212 133.17 159.143Z" fill="currentColor" stroke="currentColor" stroke-miterlimit="10" stroke-linejoin="round" />
<path id="Vector_38" d="M113.571 195.567C116.157 196.203 117.077 194.006 117.077 191.578C117.077 188.514 117.077 185.161 117.077 180.015C116.962 175.101 115.008 172.789 112.709 172.962C102.709 172.962 101.444 176.142 101.042 178.108C100.582 180.247 98.3981 191.983 113.571 195.567Z" fill="currentColor" stroke="currentColor" stroke-miterlimit="10" stroke-linejoin="round" />
<path id="Vector_39" d="M100.927 159.136C96.9618 172.375 100.985 178.156 100.985 178.156C100.985 178.156 102.652 173.011 112.652 173.011C112.824 172.953 112.997 172.953 113.169 173.011C117.02 172.606 117.02 167.75 117.02 163.645C117.02 156.65 114.836 153.933 110.583 153.933C105.813 153.875 101.675 156.708 100.927 159.136Z" fill="currentColor" stroke="currentColor" stroke-miterlimit="10" stroke-linejoin="round" />
<path id="Vector_40" d="M100.929 159.143C102.481 157.177 105.814 153.882 110.585 153.882C116.619 153.824 117.022 154.807 117.022 147.927C117.022 147.349 117.022 145.268 117.022 144.806C117.022 140.932 114.378 138.042 108.803 141.279C103.285 144.517 99.7796 155.212 100.929 159.143Z" fill="currentColor" stroke="currentColor" stroke-miterlimit="10" stroke-linejoin="round" />
<path id="Vector_41" d="M131.906 196.664C132.021 201.463 130.872 208.631 125.642 221.177C120.412 233.722 117.078 233.491 117.078 229.039C117.078 222.044 117.078 207.88 117.078 203.081C117.078 198.283 119.205 196.664 121.504 195.566C123.802 194.525 124.205 194.641 127.711 192.56C131.274 190.478 131.791 192.097 131.906 196.664Z" fill="currentColor" stroke="currentColor" stroke-miterlimit="10" stroke-linejoin="round" />
<path id="Vector_42" d="M102.25 196.664C102.135 201.463 103.284 208.631 108.514 221.177C113.744 233.722 117.078 233.491 117.078 229.039C117.078 222.044 117.078 207.88 117.078 203.081C117.078 198.283 114.951 196.664 112.652 195.566C110.353 194.525 109.951 194.641 106.445 192.559C102.882 190.478 102.365 192.097 102.25 196.664Z" fill="currentColor" stroke="currentColor" stroke-miterlimit="10" stroke-linejoin="round" />
</g></svg>