<svg width="24" height="24" viewBox="0 0 24 24" fill="none" xmlns="http://www.w3.org/2000/svg">
<path fill-rule="evenodd" clip-rule="evenodd" d="M21 9.75H16.6943C16.0833 9.75 15.5614 10.1922 15.4609 10.7949L14.7666 14.96C14.7553 15.0277 14.75 15.0964 14.75 15.165V22H13.25V15.75H10.75V22H9.25V15.165C9.24997 15.0964 9.24469 15.0277 9.2334 14.96L8.53906 10.7949C8.43861 10.1922 7.91671 9.75 7.30566 9.75H3V8.25H21V9.75ZM9.75293 9.75C9.87859 9.99594 9.9711 10.2631 10.0186 10.5479L10.6357 14.25H13.3643L13.9814 10.5479C14.0289 10.2631 14.1214 9.99594 14.2471 9.75H9.75293Z" fill="black"/>
<path fill-rule="evenodd" clip-rule="evenodd" d="M12 1.25C13.5188 1.25 14.75 2.48122 14.75 4C14.75 5.51878 13.5188 6.75 12 6.75C10.4812 6.75 9.25 5.51878 9.25 4C9.25 2.48122 10.4812 1.25 12 1.25ZM12 2.75C11.3096 2.75 10.75 3.30964 10.75 4C10.75 4.69036 11.3096 5.25 12 5.25C12.6904 5.25 13.25 4.69036 13.25 4C13.25 3.30964 12.6904 2.75 12 2.75Z" fill="black"/>
</svg>
