<svg width="24" height="24" viewBox="0 0 24 24" fill="none" xmlns="http://www.w3.org/2000/svg">
<path d="M19.3371 13.543C19.8562 13.8398 20.232 14.3358 20.3771 14.916C20.637 15.9558 20.637 17.0442 20.3771 18.084C20.232 18.6642 19.8562 19.1602 19.3371 19.457L16.3722 21.1514L15.6281 19.8486L18.5929 18.1543C18.7571 18.0603 18.8761 17.9033 18.922 17.7197C18.9608 17.5645 18.9891 17.4074 19.0128 17.25H4.00014V15.75H19.0128C18.9891 15.5926 18.9608 15.4355 18.922 15.2803C18.8761 15.0967 18.7571 14.9397 18.5929 14.8457L15.6281 13.1514L16.3722 11.8486L19.3371 13.543Z" fill="black"/>
<path d="M8.37221 4.15137L5.40737 5.8457C5.2431 5.9397 5.12419 6.09666 5.07826 6.28027C5.03946 6.43552 5.01023 6.59252 4.98647 6.75H20.0001V8.25H4.98647C5.01023 8.40748 5.03946 8.56448 5.07826 8.71973C5.12419 8.90334 5.2431 9.0603 5.40737 9.1543L8.37221 10.8486L7.62807 12.1514L4.66323 10.457C4.14393 10.1602 3.76836 9.66423 3.62319 9.08398C3.36323 8.04418 3.36323 6.95582 3.62319 5.91602C3.76836 5.33577 4.14393 4.83977 4.66323 4.54297L7.62807 2.84863L8.37221 4.15137Z" fill="black"/>
</svg>
