<svg width="18.2022" height="19.403" viewBox="0 0 18.2022 19.403" fill="none" xmlns="http://www.w3.org/2000/svg">
<path id="Vector" fill-rule="evenodd" clip-rule="evenodd" d="M5.37748 0.604199C7.79455 -0.201364 10.4077 -0.201435 12.8247 0.604199C14.6316 1.2067 15.8511 2.89776 15.8511 4.80244V6.68428C15.8511 7.77682 15.8525 8.25679 15.9146 8.72236C15.978 9.19806 16.0887 9.66694 16.2447 10.1208C16.3974 10.5649 16.6106 10.9953 17.0992 11.9724L17.3872 12.5495C17.6719 13.1187 17.9223 13.6153 18.0621 14.0261C18.2039 14.4433 18.2951 14.9446 18.0474 15.4382C18.0011 15.5304 17.9461 15.6182 17.8843 15.7009C17.5536 16.1431 17.065 16.2867 16.6285 16.3464C16.1985 16.4051 15.6419 16.403 15.0054 16.403H12.774C12.6279 17.1178 12.2761 17.7807 11.7525 18.3044C11.0493 19.0076 10.0955 19.4029 9.10112 19.403C8.10671 19.403 7.15298 19.0074 6.44975 18.3044C5.92607 17.7807 5.5734 17.1179 5.42729 16.403H3.19682C2.56039 16.403 2.00372 16.405 1.57377 16.3464C1.13721 16.2868 0.648711 16.143 0.317912 15.7009C0.256174 15.6183 0.201098 15.5303 0.154826 15.4382C-0.0929139 14.9445 -0.0017511 14.4433 0.140178 14.0261C0.279942 13.6153 0.530309 13.1189 0.814983 12.5495L1.10307 11.9724C1.59172 10.9951 1.80485 10.565 1.95756 10.1208C2.11355 9.66691 2.22419 9.1981 2.28764 8.72236C2.34969 8.25679 2.35112 7.77682 2.35112 6.68428V4.80244C2.35112 2.8976 3.57039 1.20656 5.37748 0.604199ZM6.98295 16.403C7.09381 16.7159 7.27108 17.0046 7.5103 17.2438C7.93222 17.6656 8.50454 17.903 9.10112 17.903C9.6977 17.9029 10.2701 17.6657 10.6919 17.2438C10.9312 17.0046 11.1084 16.716 11.2193 16.403H6.98295ZM12.3511 2.02705C10.2418 1.32396 7.96042 1.32403 5.85112 2.02705C4.65674 2.42535 3.85112 3.54337 3.85112 4.80244V6.68428C3.85112 7.7388 3.85219 8.33377 3.77397 8.9206C3.69737 9.49498 3.5639 10.0611 3.37553 10.6091C3.18306 11.1689 2.9164 11.7002 2.44487 12.6433L2.1558 13.2194C1.85073 13.8296 1.65905 14.2186 1.5601 14.5095C1.505 14.6715 1.49946 14.7469 1.50053 14.7731C1.50436 14.7801 1.50876 14.7871 1.51322 14.7937C1.5356 14.8062 1.60537 14.8366 1.7769 14.8601C2.08126 14.9015 2.51511 14.903 3.19682 14.903H15.0054C15.6872 14.903 16.121 14.9016 16.4253 14.8601C16.5958 14.8368 16.6653 14.8063 16.688 14.7937C16.6926 14.787 16.6968 14.7802 16.7007 14.7731C16.7018 14.7469 16.6972 14.6714 16.6421 14.5095C16.5432 14.2187 16.3514 13.8294 16.0464 13.2194L15.7574 12.6433C15.2859 11.7003 15.0192 11.1688 14.8267 10.6091C14.6383 10.0611 14.5049 9.49495 14.4283 8.9206C14.35 8.33377 14.3511 7.7388 14.3511 6.68428V4.80244C14.3511 3.54354 13.5452 2.42549 12.3511 2.02705Z" fill="#000000"/>
</svg>


