<svg width="24" height="24" viewBox="0 0 24 24" fill="none" xmlns="http://www.w3.org/2000/svg">
<path fill-rule="evenodd" clip-rule="evenodd" d="M10.94 2.96323C11.5365 2.40646 12.4626 2.40646 13.0591 2.96323L16.9068 6.55405C19.0432 8.54809 20.3962 11.2812 20.7183 14.18C21.059 17.2476 19.1586 20.1769 16.1832 21.0521C13.4523 21.8552 10.5468 21.8553 7.81597 21.0521C4.8407 20.1768 2.94018 17.2475 3.28081 14.18C3.60292 11.2813 4.95614 8.54806 7.09233 6.55405L10.94 2.96323ZM11.9634 4.05991L8.11577 7.65073C6.24572 9.39637 5.05418 11.7978 4.77105 14.346C4.50925 16.7055 5.97676 18.9469 8.2398 19.6126C10.6942 20.3345 13.3049 20.3344 15.7593 19.6126C18.0225 18.947 19.4899 16.7056 19.2281 14.346C18.9449 11.7977 17.7536 9.3964 15.8834 7.65073L12.0357 4.05991C12.0155 4.04103 11.9837 4.04103 11.9634 4.05991Z" fill="black"/>
</svg>
