<svg width="24" height="24" viewBox="0 0 24 24" fill="none" xmlns="http://www.w3.org/2000/svg">
<path d="M8.75 14C8.75 14.4268 8.83374 14.8498 8.99707 15.2441C9.1604 15.6384 9.40042 15.9961 9.70215 16.2979C10.0039 16.5996 10.3616 16.8396 10.7559 17.0029C11.1502 17.1663 11.5732 17.25 12 17.25V18.75C11.3764 18.75 10.7588 18.6273 10.1826 18.3887C9.60632 18.15 9.08268 17.7995 8.6416 17.3584C8.20052 16.9173 7.85004 16.3937 7.61133 15.8174C7.37273 15.2412 7.25 14.6236 7.25 14H8.75Z" fill="black"/>
<path fill-rule="evenodd" clip-rule="evenodd" d="M12 2.25C12.6332 2.25 13.1647 2.24867 13.5977 2.29297C14.0456 2.33881 14.4604 2.43901 14.8438 2.68457C15.0243 2.80027 15.191 2.93646 15.3398 3.09082C15.6557 3.41847 15.835 3.80615 15.9678 4.23633C16.0961 4.65221 16.2 5.174 16.3242 5.79493L16.7354 7.85254L16.7197 7.85547C18.5616 9.27234 19.75 11.4966 19.75 14C19.75 18.2802 16.2802 21.75 12 21.75C7.71979 21.75 4.25 18.2802 4.25 14C4.25 11.4969 5.43781 9.27236 7.2793 7.85547L7.26465 7.85254L7.67578 5.79493C7.79997 5.174 7.90388 4.65221 8.03223 4.23633C8.16502 3.80615 8.34425 3.41847 8.66016 3.09082C8.80904 2.93646 8.97566 2.80027 9.15625 2.68457C9.53957 2.43901 9.95437 2.33881 10.4023 2.29297C10.8353 2.24867 11.3668 2.25 12 2.25ZM12 7.75C8.54822 7.75 5.75 10.5482 5.75 14C5.75 17.4518 8.54822 20.25 12 20.25C15.4518 20.25 18.25 17.4518 18.25 14C18.25 10.5482 15.4518 7.75 12 7.75ZM12 3.75C11.3358 3.75 10.8937 3.75047 10.5547 3.78516C10.231 3.81831 10.0746 3.87694 9.96484 3.94727C9.8828 3.99986 9.80788 4.06266 9.74023 4.13282C9.64974 4.22668 9.56181 4.3678 9.46582 4.67872C9.36532 5.00434 9.27771 5.43763 9.14746 6.08887L8.99316 6.8545C9.9177 6.46498 10.9338 6.25 12 6.25C13.0659 6.25 14.0815 6.4652 15.0059 6.8545L14.8525 6.08887C14.7223 5.43763 14.6347 5.00434 14.5342 4.67872C14.4382 4.3678 14.3503 4.22668 14.2598 4.13282C14.1921 4.06266 14.1172 3.99986 14.0352 3.94727C13.9254 3.87694 13.769 3.81831 13.4453 3.78516C13.1063 3.75047 12.6642 3.75 12 3.75Z" fill="black"/>
</svg>
