<svg width="24" height="24" viewBox="0 0 24 24" fill="none" xmlns="http://www.w3.org/2000/svg">
<path fill-rule="evenodd" clip-rule="evenodd" d="M21 6.75H18.7002L17.8848 18.5732C17.7809 20.0787 16.6819 21.3281 15.2021 21.624C13.0883 22.0468 10.9117 22.0468 8.79785 21.624C7.31809 21.3281 6.21912 20.0787 6.11523 18.5732L5.2998 6.75H3V5.25H21V6.75ZM7.61133 18.4697C7.66862 19.3004 8.27529 19.99 9.0918 20.1533C11.0116 20.5373 12.9884 20.5373 14.9082 20.1533C15.7247 19.99 16.3314 19.3004 16.3887 18.4697L17.1963 6.75H6.80371L7.61133 18.4697Z" fill="black"/>
<path d="M16 3.75H8V2.25H16V3.75Z" fill="black"/>
</svg>
