<svg width="24" height="24" viewBox="0 0 24 24" fill="none" xmlns="http://www.w3.org/2000/svg">
<path fill-rule="evenodd" clip-rule="evenodd" d="M9.41122 1.93702C9.7978 1.60708 10.3099 1.28769 10.9278 1.39698L11.0528 1.42432L11.1749 1.46241C11.7658 1.67521 12.0508 2.20813 12.2218 2.68702C12.4064 3.20426 12.5477 3.91944 12.7159 4.76026L13.1475 6.91651C13.2651 7.50428 13.3408 7.8791 13.4259 8.14014C13.4748 8.29019 13.5123 8.35175 13.5265 8.37159C13.5524 8.38645 13.5809 8.39607 13.6104 8.40088C13.6336 8.39446 13.7014 8.37103 13.8341 8.28467C14.0642 8.13484 14.3588 7.89032 14.8194 7.50635L15.0704 7.29639C15.2479 7.14845 15.4107 7.01369 15.5528 6.91065C15.6995 6.80433 15.8717 6.69749 16.0811 6.63331C16.5677 6.48446 17.0949 6.55464 17.5255 6.82569C17.711 6.94253 17.8492 7.0908 17.963 7.23194C18.0732 7.36861 18.1937 7.54167 18.3263 7.73096L18.4933 7.97608C19.3119 9.2125 19.8836 10.5974 20.1749 12.0532L20.339 12.8716C20.6198 14.276 20.6198 15.7231 20.339 17.1274L20.338 17.1333L20.3272 17.1851C19.906 19.2798 18.3508 20.9651 16.296 21.5523C13.4881 22.3544 10.5111 22.3545 7.70321 21.5523C5.6468 20.9645 4.09072 19.2771 3.67099 17.1802L3.62411 16.9468C3.36942 15.6733 3.33307 14.3645 3.51669 13.0786L3.62313 12.3325C4.05739 9.29272 5.36479 6.44343 7.38681 4.13233L7.94931 3.48878C8.51399 2.84343 8.99351 2.2936 9.41122 1.93702ZM10.6622 2.88526C10.6181 2.9038 10.5309 2.95298 10.3849 3.07764C10.0709 3.34571 9.67645 3.79336 9.07821 4.47706L8.51571 5.11963C6.79932 7.08136 5.65123 9.47163 5.19052 12.0308L5.10751 12.5444L5.00106 13.2905C4.84153 14.4077 4.87357 15.5441 5.09481 16.6509L5.14169 16.8843C5.45109 18.431 6.59887 19.6764 8.11532 20.1099C10.6539 20.8352 13.3453 20.8351 15.8839 20.1099L16.1642 20.019C17.5408 19.5195 18.5674 18.3352 18.8575 16.8853L18.8585 16.8794L18.8692 16.8276C19.08 15.7703 19.106 14.6857 18.9474 13.6216L18.8683 13.1665L18.7042 12.3482C18.4343 10.9985 17.887 9.71891 17.0977 8.59131C16.9534 8.38519 16.8659 8.26127 16.795 8.17335C16.7283 8.09066 16.7121 8.08601 16.7267 8.09522C16.6652 8.0566 16.589 8.04565 16.5196 8.0669C16.5366 8.06171 16.5193 8.06177 16.4327 8.12452C16.3413 8.19078 16.2244 8.28784 16.0313 8.44874L15.7794 8.6587C15.3486 9.0178 14.9744 9.33186 14.6524 9.54151C14.3302 9.75127 13.9275 9.9481 13.4522 9.89405C13.1896 9.86404 12.9362 9.77482 12.713 9.63331C12.309 9.37698 12.1192 8.97054 12.0001 8.60499C11.881 8.23962 11.7859 7.76049 11.6759 7.21045L11.2452 5.0542C11.067 4.16332 10.9475 3.57972 10.8087 3.19092C10.7431 3.00737 10.691 2.92241 10.6622 2.88526Z" fill="black"/>
</svg>
