<svg width="24" height="24" viewBox="0 0 24 24" fill="none" xmlns="http://www.w3.org/2000/svg">
<path d="M18.4404 5.37777C19.0174 5.22053 19.6336 5.30554 20.1465 5.61312C21.0655 6.16456 21.8353 6.93429 22.3867 7.85335C22.6943 8.36622 22.7793 8.9824 22.6221 9.55941L21.7236 12.8543L20.2764 12.4588L21.1748 9.16488C21.2245 8.98233 21.1978 8.78711 21.1006 8.62484C21.0181 8.48739 20.9268 8.35574 20.832 8.22738L13.5303 15.5301C13.2374 15.823 12.7626 15.823 12.4697 15.5301L9 12.0604L2.53027 18.5301L1.46973 17.4696L8.46973 10.4696L8.52637 10.4178C8.82093 10.1775 9.25568 10.195 9.53027 10.4696L13 13.9393L19.7715 7.16683C19.6435 7.07244 19.512 6.98244 19.375 6.90023C19.2127 6.80283 19.0176 6.77534 18.835 6.82503L15.541 7.72347L15.1455 6.2762L18.4404 5.37777Z" fill="black"/>
</svg>
