<svg xmlns="http://www.w3.org/2000/svg" preserveAspectRatio="none" width="286.668" height="497" viewBox="0 0 286.668 497" fill="none" color="#000000"><title>Male Back Back Overlay Candidate</title><g id="MaleBackBackOverlayCandidate" fill-opacity="1" stroke-opacity="1"><path id="Vector_17" d="M126.261 65.1374C126.261 69.2353 103.164 80.1008 90.8704 92.4564C90.8704 92.4564 89.877 102.887 89.877 130.641C89.877 158.394 98.8177 164.293 101.674 170.129C104.53 175.966 105.896 181.305 104.716 185.03C103.599 188.756 97.7622 206.265 108.007 220.235C118.189 234.205 133.401 247.616 136.94 250.844C140.417 254.135 142.466 253.08 142.466 253.08C142.466 253.08 146.253 254.073 149.73 250.844C153.207 247.554 168.419 234.143 178.664 220.235C188.846 206.265 183.072 188.756 181.954 185.03C180.837 181.305 182.203 175.966 184.997 170.129C187.791 164.293 196.793 158.457 196.793 130.641C196.793 102.887 195.8 92.4564 195.8 92.4564C183.507 80.0387 160.41 69.2353 160.41 65.1374H126.261Z" fill="currentColor" stroke="currentColor" stroke-miterlimit="10" stroke-linejoin="round" />
<path id="Vector_18" d="M110.987 207.319C110.987 207.319 117.32 202.166 120.735 199.185C120.735 199.185 130.235 171.184 143.336 171.184C156.436 171.184 165.936 199.185 165.936 199.185C169.289 202.166 175.684 207.319 175.684 207.319C175.684 207.319 161.962 252.209 142.28 252.209C122.598 252.147 110.987 207.319 110.987 207.319Z" fill="currentColor" stroke="currentColor" stroke-miterlimit="10" stroke-linejoin="round" />
<path id="Vector_24" d="M89.8763 130.576C89.8763 130.576 96.9544 146.533 125.577 143.739C154.262 140.945 124.832 108.411 108.565 105.12C92.2978 101.829 84.9092 124.616 89.8763 130.576Z" fill="currentColor" stroke="currentColor" stroke-miterlimit="10" stroke-linejoin="round" />
<path id="Vector_25" d="M104.654 178.07C107.014 187.818 120.735 199.181 120.735 199.181C120.735 199.181 138.369 183.1 143.336 171.179C143.336 171.179 143.274 138.147 108.628 129.641C92.423 125.668 89.9394 130.573 89.9394 130.573C89.9394 158.326 98.8802 164.225 101.736 170.061C103.04 172.855 104.096 175.587 104.654 178.07Z" fill="currentColor" stroke="currentColor" stroke-miterlimit="10" stroke-linejoin="round" />
<path id="Vector_26" d="M196.729 130.576C196.729 130.576 189.651 146.533 161.028 143.739C132.343 140.945 161.773 108.411 178.04 105.12C194.307 101.829 201.696 124.616 196.729 130.576Z" fill="currentColor" stroke="currentColor" stroke-miterlimit="10" stroke-linejoin="round" />
<path id="Vector_27" d="M181.956 178.07C179.597 187.818 165.875 199.181 165.875 199.181C165.875 199.181 148.304 183.1 143.337 171.179C143.337 171.179 143.399 138.147 178.045 129.641C194.25 125.668 196.733 130.573 196.733 130.573C196.733 158.326 187.793 164.225 184.937 170.061C183.571 172.855 182.515 175.587 181.956 178.07Z" fill="currentColor" stroke="currentColor" stroke-miterlimit="10" stroke-linejoin="round" />
<path id="Vector_28" d="M143.33 171.179C143.33 171.179 147.49 160.251 155.996 149.51C164.565 138.769 165.931 120.887 178.038 105.179L195.733 92.4506C183.44 80.0328 168.166 75.252 160.343 65.1316C152.457 55.0111 160.964 41.2896 143.33 41.2896C125.697 41.2896 136.19 56.6875 126.318 65.1316C116.446 73.5756 103.221 80.0949 90.9277 92.4506L108.623 105.179C120.73 120.949 122.096 138.831 130.664 149.51C139.17 160.251 143.33 171.179 143.33 171.179Z" fill="currentColor" stroke="currentColor" stroke-miterlimit="10" stroke-linejoin="round" />
</g></svg>