<svg xmlns="http://www.w3.org/2000/svg" preserveAspectRatio="none" width="238.679" height="497.399" viewBox="0 0 238.679 497.399" fill="none" color="#000000"><title>Female Back Glute Overlay Candidate</title><g id="FemaleBackGluteOverlayCandidate" fill-opacity="1" stroke-opacity="1"><path id="Vector_47" d="M152.363 191.818C147.117 183.154 144.465 181.975 133.797 193.115C125.192 202.073 119.593 210.325 119.593 227.77C119.593 242.682 120.89 250.874 133.974 256.768C147.825 262.956 171.989 251.11 170.221 229.421C168.099 204.372 157.608 200.482 152.363 191.818Z" fill="currentColor" stroke="currentColor" stroke-miterlimit="10" stroke-linejoin="round" />
<path id="Vector_48" d="M86.7031 191.818C91.9486 183.154 94.6008 181.975 105.269 193.115C113.874 202.073 119.473 210.325 119.473 227.77C119.473 240.678 118.176 250.874 105.092 256.768C91.2413 262.956 67.0766 251.11 68.8448 229.421C70.9665 204.372 81.4576 200.482 86.7031 191.818Z" fill="currentColor" stroke="currentColor" stroke-miterlimit="10" stroke-linejoin="round" />
</g></svg>