<svg xmlns="http://www.w3.org/2000/svg" preserveAspectRatio="none" width="272.609" height="496.989" viewBox="0 0 272.609 496.989" fill="none" color="#000000"><title>Male Front Chest Overlay Candidate</title><g id="MaleFrontChestOverlayCandidate" fill-opacity="1" stroke-opacity="1"><path id="Vector_57" d="M171.37 97.837C169.174 96.4236 166.735 95.4405 164.173 94.9489C146.913 91.9993 142.583 94.0271 139.534 97.7141C136.484 101.34 136.302 106.317 136.302 117.562C136.302 128.808 143.742 131.88 147.035 133.908C150.329 135.936 160.453 142.818 172.834 141.405C185.214 139.992 187.41 130.16 190.764 126.411C179.359 118.3 172.956 102.2 171.37 97.837Z" fill="currentColor" stroke="currentColor" stroke-miterlimit="10" stroke-linejoin="round" />
<path id="Vector_58" d="M101.6 96.6702C101.6 96.6702 105.808 95.3183 108.431 94.9496C125.752 92.5531 130.021 94.0279 133.07 97.7149C136.12 101.34 136.303 106.318 136.303 117.563C136.303 128.808 128.862 131.881 125.569 133.909C122.275 135.937 112.151 142.819 99.7706 141.406C87.3899 139.992 85.1943 130.16 81.84 126.412C93.2448 118.301 100.015 101.095 101.6 96.6702Z" fill="currentColor" stroke="currentColor" stroke-miterlimit="10" stroke-linejoin="round" />
</g></svg>