<svg width="24" height="24" viewBox="0 0 24 24" fill="none" xmlns="http://www.w3.org/2000/svg">
<path d="M5.75 10.8906C5.7501 11.2304 5.96773 11.5322 6.29004 11.6396C7.39996 12.0096 8.60004 12.0096 9.70996 11.6396C10.0323 11.5322 10.2499 11.2304 10.25 10.8906V2H11.75V10.8906C11.7499 11.876 11.1194 12.7509 10.1846 13.0625C9.71626 13.2186 9.23514 13.321 8.75 13.374V22H7.25V13.374C6.76486 13.321 6.28374 13.2186 5.81543 13.0625C4.88062 12.7509 4.2501 11.876 4.25 10.8906V2H5.75V10.8906Z" fill="black"/>
<path fill-rule="evenodd" clip-rule="evenodd" d="M19 2.25C19.1989 2.25 19.3896 2.32907 19.5303 2.46973C19.6709 2.61038 19.75 2.80109 19.75 3V22H18.25V13.75H15C14.7881 13.75 14.5865 13.66 14.4443 13.5029C14.3022 13.3459 14.2329 13.1365 14.2539 12.9258L14.9551 5.91016C15.163 3.83229 16.9117 2.25 19 2.25ZM18.25 3.8623C17.2844 4.15744 16.5535 5.00755 16.4482 6.05957L15.8281 12.25H18.25V3.8623Z" fill="black"/>
<path d="M8.75 10H7.25V2H8.75V10Z" fill="black"/>
</svg>
