<svg width="17.9259" height="17.3789" viewBox="0 0 17.9259 17.3789" fill="none" xmlns="http://www.w3.org/2000/svg">
<path id="Vector" d="M15.2773 2.56348C16.1119 2.92115 16.7702 3.59641 17.1074 4.43945C18.1987 7.16779 18.1987 10.2111 17.1074 12.9395C16.7702 13.7825 16.1119 14.4578 15.2773 14.8154L9.2959 17.3789L8.7041 16L14.6865 13.4365C15.1554 13.2356 15.5254 12.8564 15.7148 12.3828C16.0944 11.434 16.3198 10.441 16.3955 9.43945H0V7.93945H16.3955C16.3198 6.93791 16.0944 5.94495 15.7148 4.99609C15.5254 4.52248 15.1554 4.14333 14.6865 3.94238L8.7041 1.37891L9.2959 0L15.2773 2.56348Z" fill="#000000"/>
</svg>


