<svg width="20.5451" height="18.9303" viewBox="0 0 20.5451 18.9303" fill="none" xmlns="http://www.w3.org/2000/svg">
<g id="Vector">
<path fill-rule="evenodd" clip-rule="evenodd" d="M13.711 3.76062C14.2769 3.76062 14.7841 3.75863 15.1827 3.81629C15.5485 3.86923 15.9381 3.98642 16.2452 4.2909L16.3712 4.43348L16.4786 4.5907C16.6995 4.96243 16.7191 5.36856 16.6817 5.73621C16.641 6.13691 16.5163 6.62864 16.379 7.17762L16.0001 8.69226C15.9166 9.02607 15.6167 9.26062 15.2726 9.26062H5.27256C4.92849 9.26058 4.62851 9.02606 4.54502 8.69226L4.16612 7.17762C4.02887 6.62863 3.90413 6.13691 3.86338 5.73621C3.82071 5.31605 3.85239 4.84538 4.17393 4.43348L4.29991 4.2909C4.60696 3.98645 4.99668 3.86923 5.36241 3.81629C5.76102 3.75862 6.26821 3.76062 6.83409 3.76062H13.711ZM6.83409 5.26062C6.22096 5.26062 5.84323 5.26219 5.57725 5.30066C5.45347 5.31859 5.39272 5.3401 5.36631 5.35242C5.36224 5.35431 5.35865 5.35514 5.35655 5.35633C5.3559 5.35873 5.35556 5.36306 5.3546 5.36805C5.34908 5.39695 5.34299 5.4611 5.35557 5.58484C5.38276 5.85215 5.47256 6.21881 5.6212 6.81336L5.85752 7.76062H9.52256V6.51062H11.0226V7.76062H14.6876L14.9239 6.81336C15.0726 6.21883 15.1624 5.85215 15.1896 5.58484C15.2021 5.46105 15.1961 5.39693 15.1905 5.36805C15.1895 5.36284 15.1883 5.35871 15.1876 5.35633C15.1855 5.35519 15.1825 5.35413 15.1788 5.35242C15.1524 5.3401 15.0917 5.31858 14.9679 5.30066C14.7019 5.2622 14.3242 5.26062 13.711 5.26062H6.83409Z" fill="#000000"/>
<path fill-rule="evenodd" clip-rule="evenodd" d="M6.04698 0.183475C8.85869 -0.0611611 11.6864 -0.0611557 14.4981 0.183475C14.8119 0.210776 15.1259 0.242146 15.7403 0.303592C16.2096 0.350523 16.5016 0.379273 16.7511 0.430546C18.9967 0.892165 20.5926 2.89143 20.544 5.18348C20.5386 5.4381 20.501 5.72933 20.4425 6.19715L19.3585 14.872C19.1151 16.8191 17.5811 18.3532 15.6339 18.5966C12.0736 19.0416 8.47154 19.0416 4.91124 18.5966C2.9641 18.3531 1.43006 16.8191 1.18663 14.872L0.102642 6.19715C0.0441639 5.72933 0.00650972 5.4381 0.00107977 5.18348C-0.0475061 2.89147 1.54847 0.892212 3.79405 0.430546C4.04357 0.379267 4.3355 0.350521 4.80479 0.303592C5.41924 0.242147 5.73324 0.210775 6.04698 0.183475ZM14.3683 1.67762C11.643 1.4405 8.90214 1.44049 6.17686 1.67762C5.87496 1.70389 5.57212 1.73399 4.9542 1.79578C4.44722 1.84648 4.25041 1.86751 4.09581 1.8993C2.55928 2.21521 1.46769 3.5839 1.50108 5.15223C1.50447 5.30998 1.52776 5.50632 1.59092 6.0116L2.67491 14.6854C2.83323 15.9516 3.83154 16.95 5.09776 17.1083C8.53419 17.5378 12.0109 17.5378 15.4474 17.1083C16.7136 16.95 17.7119 15.9517 17.8702 14.6854L18.9542 6.0116C19.0174 5.50632 19.0407 5.30998 19.044 5.15223C19.0774 3.58386 17.9859 2.21516 16.4493 1.8993C16.2947 1.86752 16.0979 1.84648 15.5909 1.79578C14.973 1.73399 14.6702 1.70389 14.3683 1.67762Z" fill="#000000"/>
</g>
</svg>


