<svg width="24" height="24" viewBox="0 0 24 24" fill="none" xmlns="http://www.w3.org/2000/svg">
<path fill-rule="evenodd" clip-rule="evenodd" d="M14.1689 3.77109C14.8692 3.07072 15.9255 2.86728 16.8358 3.25742C18.5916 4.00989 19.9906 5.40888 20.7431 7.16464C21.133 8.07497 20.9297 9.13134 20.2294 9.83163L10.7021 19.359C10.1674 19.8936 9.76087 20.319 9.22354 20.5416C8.6863 20.7639 8.09867 20.7506 7.34268 20.7506H5.99991C5.54977 20.7506 5.13651 20.7525 4.80264 20.7076C4.44724 20.6598 4.07157 20.5468 3.7626 20.2379C3.45369 19.929 3.3407 19.5532 3.29288 19.1978C3.248 18.864 3.24991 18.4506 3.24991 18.0006V16.6578C3.24991 15.9019 3.23662 15.3142 3.45889 14.7769C3.68146 14.2396 4.10685 13.8331 4.64151 13.2984L14.1689 3.77109ZM5.70206 14.359C5.08121 14.9798 4.92652 15.1527 4.84463 15.3502C4.7629 15.5478 4.74991 15.7797 4.74991 16.6578V18.0006C4.74991 18.4928 4.75189 18.787 4.78018 18.9977C4.79315 19.094 4.80834 19.1429 4.81729 19.1646C4.8193 19.1695 4.82119 19.1735 4.82217 19.1754L4.82315 19.1773L4.8251 19.1783C4.82704 19.1793 4.83089 19.1812 4.83584 19.1832C4.85762 19.1922 4.90635 19.2073 5.00284 19.2203C5.21352 19.2486 5.50756 19.2506 5.99991 19.2506H7.34268C8.22097 19.2506 8.45269 19.2376 8.6503 19.1559C8.84783 19.074 9.02066 18.9193 9.64151 18.2984L16.9394 11.0006L12.9999 7.06113L5.70206 14.359ZM16.245 4.63632C15.8984 4.48776 15.4961 4.56496 15.2294 4.83163L14.0605 6.00058L17.9999 9.94003L19.1689 8.77109C19.4355 8.50449 19.5126 8.10204 19.3642 7.75546C18.7634 6.35377 17.6467 5.23707 16.245 4.63632Z" fill="black"/>
</svg>
