<svg width="16" height="16" viewBox="0 0 16 16" fill="none" xmlns="http://www.w3.org/2000/svg">
<path d="M2.97192 9.57422C2.98745 9.59492 3.00803 9.61148 3.03117 9.62305C3.58945 9.90215 4.23755 9.92456 4.81112 9.69271L5.42635 10.5124L5.41593 10.5176C4.5245 10.9632 3.47534 10.9632 2.5839 10.5176C2.4219 10.4366 2.28112 10.3187 2.17244 10.1738L0.266846 7.63346L1.06632 7.0332L2.97192 9.57422Z" fill="#000000"/>
<path d="M15.707 4.33203L10.4609 10.2344C10.3612 10.3465 10.2409 10.4387 10.1067 10.5059L10.0826 10.5176C9.19116 10.9632 8.14201 10.9632 7.25057 10.5176C7.08857 10.4366 6.94778 10.3187 6.83911 10.1738L4.93351 7.63346L5.73299 7.0332L7.63859 9.57422C7.65412 9.59492 7.67469 9.61148 7.69784 9.62305C8.30774 9.92795 9.02543 9.92795 9.63534 9.62305L9.65942 9.61133C9.67982 9.6011 9.6983 9.58671 9.71346 9.56966L14.9596 3.66797L15.707 4.33203Z" fill="#000000"/>
<path d="M11.0403 4.33203L7.96672 7.78971L7.35409 6.97331L10.2929 3.66797L11.0403 4.33203Z" fill="#000000"/>
</svg>
