<svg width="24" height="24" viewBox="0 0 24 24" fill="none" xmlns="http://www.w3.org/2000/svg">
<path fill-rule="evenodd" clip-rule="evenodd" d="M12.0003 7.25021C14.6235 7.25043 16.7503 9.37699 16.7503 12.0002C16.7502 14.6233 14.6234 16.75 12.0003 16.7502C9.37705 16.7502 7.25045 14.6235 7.25032 12.0002C7.25032 9.37685 9.37697 7.25021 12.0003 7.25021ZM12.0003 8.75021C10.2054 8.75021 8.75032 10.2053 8.75032 12.0002C8.75045 13.795 10.2055 15.2502 12.0003 15.2502C13.795 15.25 15.2502 13.7949 15.2503 12.0002C15.2503 10.2054 13.7951 8.75043 12.0003 8.75021Z" fill="black"/>
<path fill-rule="evenodd" clip-rule="evenodd" d="M10.0609 1.63107C11.2818 1.02091 12.7199 1.02062 13.9408 1.63107C14.3556 1.83875 14.6834 2.18877 14.8636 2.61642L15.5726 4.30099C15.721 4.65369 15.8086 4.85827 15.889 5.00021C15.9251 5.06394 15.9486 5.0954 15.9613 5.10958L15.972 5.12032C15.9733 5.12089 15.9784 5.1227 15.9857 5.12423C16.0044 5.12807 16.0444 5.13262 16.1175 5.13204C16.2805 5.13068 16.5012 5.10445 16.8802 5.05685L18.6947 4.82931C19.1549 4.77155 19.6223 4.87999 20.0101 5.13595C21.149 5.88826 21.8676 7.13334 21.9495 8.49532C21.9772 8.9574 21.8392 9.41717 21.5579 9.78829L20.4534 11.2443C20.2222 11.5492 20.0889 11.7278 20.0062 11.8684C19.9691 11.9315 19.9536 11.9675 19.9476 11.9856C19.9449 11.9937 19.9448 11.9983 19.9447 11.9992L19.9437 12.0002L19.9447 12.0012C19.9448 12.0023 19.9452 12.0064 19.9476 12.0139C19.9536 12.0319 19.9689 12.0686 20.0062 12.132C20.0889 12.2726 20.2223 12.4504 20.4534 12.7551L21.5579 14.2121C21.8392 14.5833 21.9773 15.0429 21.9495 15.5051C21.8676 16.8671 21.149 18.1122 20.0101 18.8645C19.6224 19.1203 19.1548 19.2288 18.6947 19.1711L16.8812 18.9426C16.5023 18.8949 16.2815 18.8678 16.1185 18.8664C16.0453 18.8658 16.0054 18.8714 15.9867 18.8752C15.9794 18.8767 15.9753 18.8785 15.974 18.8791L15.9622 18.8899C15.9496 18.9041 15.9251 18.9356 15.889 18.9992C15.8087 19.1411 15.7217 19.3454 15.5736 19.6975L14.8636 21.384C14.6834 21.8118 14.3557 22.1617 13.9408 22.3693C12.7199 22.9798 11.2817 22.9794 10.0609 22.3693C9.69745 22.1876 9.40136 21.8965 9.21224 21.5402L9.13704 21.384L8.42708 19.6975C8.27862 19.345 8.19108 19.1402 8.11067 18.9983C8.07504 18.9354 8.05115 18.9042 8.03841 18.8899L8.02767 18.8791C8.02697 18.8789 8.02126 18.877 8.01302 18.8752C7.9944 18.8714 7.95516 18.8658 7.88216 18.8664C7.71911 18.8678 7.49787 18.8948 7.11849 18.9426L5.30599 19.1711C4.84569 19.229 4.37838 19.1204 3.99056 18.8645C2.85161 18.1124 2.1331 16.8677 2.0511 15.5051C2.02326 15.0411 2.16244 14.5819 2.44271 14.2121L3.5472 12.7541C3.778 12.4494 3.91093 12.2716 3.99349 12.1311C4.03073 12.0677 4.04617 12.0309 4.05208 12.0129C4.05462 12.0051 4.05489 12.0009 4.05501 12.0002V11.9983C4.05489 11.9975 4.05476 11.9928 4.05208 11.9846C4.04611 11.9666 4.03055 11.9304 3.99349 11.8674C3.91088 11.7269 3.77808 11.5489 3.5472 11.2443L2.44271 9.78829C2.16237 9.41852 2.02331 8.95929 2.0511 8.49532C2.13308 7.13273 2.85158 5.88803 3.99056 5.13595C4.37842 4.87998 4.84563 4.77143 5.30599 4.82931L7.11946 5.05685C7.49857 5.1045 7.7192 5.13073 7.88216 5.13204C7.95504 5.1326 7.99439 5.12807 8.01302 5.12423C8.02126 5.12248 8.02599 5.12059 8.02669 5.12032L8.03841 5.10958C8.05114 5.09522 8.07479 5.0635 8.11067 5.00021C8.19104 4.85837 8.27867 4.65425 8.42708 4.30196L9.13704 2.61642C9.31733 2.18893 9.64565 1.83868 10.0609 1.63107ZM13.2699 2.97286C12.4713 2.57361 11.5305 2.57381 10.7318 2.97286C10.6607 3.00841 10.6 3.06215 10.557 3.12814L10.5199 3.19845L9.80989 4.884C9.67529 5.2035 9.54926 5.50422 9.41536 5.74044C9.27173 5.99372 9.08108 6.24384 8.77767 6.41915C8.47404 6.59442 8.1617 6.63431 7.87044 6.63204C7.599 6.62987 7.27588 6.58836 6.93196 6.54513L5.11849 6.31759C5.01278 6.30438 4.90507 6.32969 4.81673 6.3879C4.07171 6.88 3.60178 7.69411 3.54818 8.58517C3.54187 8.69094 3.57353 8.79698 3.63802 8.88204L4.74251 10.3381C4.95181 10.6142 5.14888 10.8727 5.28646 11.1067C5.43411 11.3578 5.55495 11.6486 5.55501 11.9992C5.555 12.3496 5.43485 12.6398 5.28743 12.8908C5.14991 13.1249 4.95181 13.3841 4.74251 13.6604L3.63802 15.1184C3.57362 15.2034 3.54183 15.3095 3.54818 15.4152C3.60187 16.3062 4.07167 17.1205 4.81673 17.6125C4.90506 17.6707 5.0128 17.696 5.11849 17.6828L6.93099 17.4543C7.27486 17.411 7.59801 17.3687 7.86946 17.3664C8.16085 17.3641 8.47388 17.405 8.77767 17.5803C9.08116 17.7557 9.2727 18.0056 9.41634 18.259C9.55022 18.4953 9.67531 18.7959 9.80989 19.1154L10.5199 20.802C10.5613 20.8998 10.6369 20.9801 10.7318 21.0275C11.5304 21.4265 12.4714 21.4268 13.2699 21.0275C13.3646 20.98 13.4396 20.8995 13.4808 20.802L14.1908 19.1164C14.3253 18.7966 14.4504 18.4954 14.5843 18.259C14.728 18.0055 14.9192 17.7557 15.223 17.5803C15.5268 17.405 15.8388 17.364 16.1302 17.3664C16.4018 17.3687 16.7247 17.411 17.0687 17.4543L18.8822 17.6828C18.9879 17.696 19.0956 17.6708 19.1839 17.6125L19.3206 17.5168C19.9859 17.0188 20.4021 16.2507 20.4525 15.4152C20.4589 15.3078 20.4259 15.202 20.3626 15.1184L19.2581 13.6623C19.0485 13.3859 18.851 13.1269 18.7132 12.8928C18.5654 12.6415 18.4437 12.3511 18.4437 12.0002C18.4437 11.6493 18.5654 11.3589 18.7132 11.1076C18.851 10.8735 19.0485 10.6145 19.2581 10.3381L20.3626 8.88204C20.4259 8.79844 20.4589 8.69258 20.4525 8.58517C20.4022 7.74964 19.9858 6.98163 19.3206 6.4836L19.1839 6.3879C19.1176 6.34411 19.0402 6.31887 18.9613 6.31466L18.8822 6.31759L17.0677 6.54513C16.7238 6.58834 16.4008 6.62984 16.1292 6.63204C15.8379 6.63434 15.5257 6.59433 15.222 6.41915C14.9182 6.24365 14.727 5.99308 14.5833 5.73946C14.4495 5.50311 14.3243 5.20274 14.1898 4.88302L13.4808 3.19845C13.4396 3.1008 13.3646 3.02049 13.2699 2.97286Z" fill="black"/>
</svg>
