<svg width="24" height="24" viewBox="0 0 24 24" fill="none" xmlns="http://www.w3.org/2000/svg">
<path d="M10.3026 2.27832C12.4156 2.2303 14.4663 2.99886 16.0272 4.42383C17.5882 5.84902 18.5405 7.82183 18.6844 9.93066C18.8283 12.0393 18.1533 14.1221 16.8007 15.7461L16.7733 15.7793L16.8036 15.8096L21.4979 20.5029C21.5631 20.5682 21.615 20.6462 21.6503 20.7314C21.6855 20.8166 21.704 20.9079 21.704 21C21.704 21.0924 21.6856 21.1842 21.6503 21.2695C21.6149 21.3549 21.5633 21.4327 21.4979 21.498C21.4326 21.5634 21.3548 21.615 21.2694 21.6504C21.1841 21.6857 21.0923 21.7041 20.9999 21.7041C20.9077 21.7041 20.8165 21.6856 20.7313 21.6504C20.6461 21.6151 20.5681 21.5632 20.5028 21.498L15.8094 16.8037L15.7792 16.7734L15.746 16.8008C14.122 18.1534 12.0392 18.8284 9.93054 18.6846C7.82171 18.5406 5.8489 17.5883 4.42371 16.0273C2.99874 14.4664 2.23018 12.4158 2.2782 10.3027C2.32634 8.18971 3.18699 6.17617 4.68152 4.68164C6.17605 3.18711 8.18958 2.32646 10.3026 2.27832ZM11.826 3.83398C10.5077 3.57175 9.14119 3.70634 7.89929 4.2207C6.65741 4.73511 5.59535 5.606 4.84851 6.72363C4.1017 7.84131 3.70305 9.15578 3.703 10.5C3.705 12.3019 4.42208 14.0295 5.69617 15.3037C6.97035 16.5779 8.69792 17.2948 10.4999 17.2969C11.8442 17.2969 13.1585 16.8982 14.2762 16.1514C15.3938 15.4046 16.2647 14.3433 16.7792 13.1016C17.2936 11.8596 17.4282 10.4923 17.1659 9.17383C16.9036 7.85567 16.2568 6.64474 15.3065 5.69434C14.356 4.74378 13.1445 4.09624 11.826 3.83398Z" fill="#000000"/>
</svg>

