<svg width="24" height="24" viewBox="0 0 24 24" fill="none" xmlns="http://www.w3.org/2000/svg">
<path fill-rule="evenodd" clip-rule="evenodd" d="M14.8588 1.40621C15.0799 1.33196 15.3522 1.30796 15.6244 1.41695L15.7416 1.47164L15.851 1.54097C16.0888 1.7122 16.2139 1.95525 16.2699 2.1816C16.3275 2.41465 16.3212 2.65889 16.3012 2.8691C16.2611 3.28997 16.134 3.85644 15.9877 4.51461L14.9037 9.3896L16.2904 9.62105C17.1045 9.75673 17.8008 9.87061 18.309 10.0341C18.8145 10.1969 19.3775 10.4845 19.5853 11.1328C19.7931 11.7812 19.5018 12.3422 19.185 12.7685C18.8665 13.197 18.3663 13.6946 17.7826 14.2783L10.9594 21.1025C10.4825 21.5793 10.0723 21.9911 9.73867 22.2509C9.57211 22.3806 9.36941 22.5172 9.14199 22.5937C8.88921 22.6786 8.56936 22.6984 8.25917 22.5283C7.94901 22.358 7.79492 22.0772 7.73085 21.8183C7.67324 21.5852 7.6796 21.3411 7.6996 21.1308C7.73968 20.7099 7.86682 20.1435 8.01308 19.4853L9.09609 14.6093L7.71035 14.3789C6.89628 14.2432 6.19997 14.1293 5.69179 13.9658C5.18617 13.803 4.62334 13.5155 4.41542 12.8671C4.2076 12.2186 4.49894 11.6578 4.81582 11.2314C5.13432 10.8029 5.6345 10.3053 6.21816 9.72164L13.0414 2.89742C13.5183 2.42056 13.9285 2.00875 14.2621 1.74898C14.4287 1.6193 14.6313 1.48265 14.8588 1.40621ZM14.1029 3.95894L7.27871 10.7822C6.65909 11.4018 6.25669 11.8075 6.01992 12.1259C5.9084 12.276 5.86718 12.3626 5.85292 12.4052C5.88866 12.4315 5.97185 12.4792 6.15175 12.5371C6.52954 12.6586 7.09306 12.7553 7.95742 12.8994L10.1234 13.2597C10.3263 13.2936 10.5074 13.4096 10.6225 13.58C10.7375 13.7507 10.7774 13.9622 10.7328 14.163L9.47792 19.8105C9.40616 20.1335 9.34669 20.4041 9.30019 20.6318C9.46729 20.4703 9.66394 20.2749 9.89785 20.041L16.7221 13.2177C17.3417 12.5981 17.7441 12.1924 17.9809 11.874C18.0929 11.7232 18.1328 11.6361 18.1469 11.5937C18.1107 11.5674 18.0272 11.5202 17.849 11.4628C17.4713 11.3413 16.9078 11.2446 16.0434 11.1005L13.8773 10.7402C13.6744 10.7064 13.4935 10.5904 13.3783 10.4199C13.2632 10.2492 13.2233 10.0378 13.268 9.83687L14.5228 4.18941C14.5947 3.8661 14.6531 3.59497 14.6996 3.36714C14.5325 3.52858 14.3368 3.72503 14.1029 3.95894Z" fill="black"/>
</svg>
