<svg width="24" height="24" viewBox="0 0 24 24" fill="none" xmlns="http://www.w3.org/2000/svg">
<path fill-rule="evenodd" clip-rule="evenodd" d="M6.38086 2.7481C5.99699 2.67531 5.56328 2.65978 5.15723 2.8731L4.98535 2.97857C4.53209 3.30132 4.37545 3.78091 4.31055 4.22271C4.24819 4.64738 4.25 5.19319 4.25 5.80865V18.1915C4.25 18.8069 4.2482 19.3527 4.31055 19.7774C4.37545 20.2192 4.5321 20.6988 4.98535 21.0215C5.43852 21.344 5.94225 21.3352 6.38086 21.252C6.8026 21.172 7.31774 20.9914 7.89941 20.7901L15.8193 18.0489C16.1134 17.9471 16.2982 17.883 16.4697 17.8086C17.1701 17.5049 17.7768 17.0403 18.25 16.4639V21.0001H19.75V3.00005H18.25V7.53619C17.7768 6.95979 17.17 6.49516 16.4697 6.19146C16.2982 6.11708 16.1134 6.05302 15.8193 5.95123L7.89941 3.21001C7.31775 3.00867 6.8026 2.82808 6.38086 2.7481ZM6.10156 4.22173C6.3895 4.27636 6.78159 4.41074 7.40918 4.62798L15.3291 7.36919C15.6452 7.47861 15.7661 7.52108 15.873 7.56744C16.7486 7.94712 17.4134 8.69232 17.6904 9.60552C17.7243 9.71709 17.7526 9.84217 17.8252 10.169C17.8832 10.4302 17.9084 10.5451 17.9297 10.6583C18.0966 11.5448 18.0966 12.4553 17.9297 13.3419C17.9084 13.455 17.8832 13.5699 17.8252 13.8311C17.7526 14.1579 17.7243 14.283 17.6904 14.3946C17.4134 15.3078 16.7486 16.053 15.873 16.4327C15.7661 16.479 15.6452 16.5215 15.3291 16.6309L7.40918 19.3721C6.78159 19.5894 6.3895 19.7237 6.10156 19.7784C5.96672 19.8039 5.89599 19.8026 5.86426 19.7989C5.86069 19.7985 5.85772 19.7973 5.85547 19.7969C5.85547 19.7969 5.85363 19.7933 5.85254 19.7911C5.83867 19.7624 5.8149 19.6956 5.79492 19.5596C5.75234 19.2697 5.75 18.8556 5.75 18.1915V5.80865C5.75 5.14447 5.75233 4.73043 5.79492 4.44048C5.81491 4.30445 5.83867 4.2377 5.85254 4.20904C5.8538 4.20643 5.8545 4.20397 5.85547 4.2022C5.8577 4.20181 5.86078 4.20164 5.86426 4.20123C5.896 4.19752 5.96674 4.19617 6.10156 4.22173Z" fill="black"/>
</svg>
