<svg width="24" height="24" viewBox="0 0 24 24" fill="none" xmlns="http://www.w3.org/2000/svg">
<path d="M21.75 12C21.75 12.9214 21.7501 13.6501 21.71 14.2393C21.6693 14.8351 21.585 15.3433 21.3887 15.8174C20.9066 16.9813 19.9813 17.9066 18.8174 18.3887C18.3433 18.585 17.8351 18.6693 17.2393 18.71C16.6501 18.7501 15.9214 18.75 15 18.75H3.9873C4.01106 18.9075 4.03933 19.0645 4.07812 19.2197C4.12404 19.4034 4.24294 19.5603 4.40723 19.6543L7.37207 21.3486L6.62793 22.6514L3.66309 20.957C3.14376 20.6602 2.76821 20.1643 2.62305 19.584C2.3631 18.5442 2.3631 17.4558 2.62305 16.416C2.76821 15.8357 3.14376 15.3398 3.66309 15.043L6.62793 13.3486L7.37207 14.6514L4.40723 16.3457C4.24294 16.4397 4.12404 16.5966 4.07812 16.7803C4.03933 16.9355 4.01106 17.0925 3.9873 17.25H15C15.9421 17.25 16.6113 17.2498 17.1377 17.2139C17.6573 17.1784 17.9832 17.111 18.2441 17.0029C19.0403 16.6731 19.6731 16.0403 20.0029 15.2441C20.111 14.9832 20.1784 14.6573 20.2139 14.1377C20.2498 13.6113 20.25 12.9421 20.25 12H21.75Z" fill="black"/>
<path d="M20.3369 3.04297C20.8562 3.33978 21.2318 3.83574 21.377 4.41602C21.6369 5.45582 21.6369 6.54418 21.377 7.58398C21.2318 8.16426 20.8562 8.66022 20.3369 8.95703L17.3721 10.6514L16.6279 9.34863L19.5928 7.6543C19.7571 7.56028 19.876 7.40337 19.9219 7.21973C19.9607 7.06451 19.9889 6.90745 20.0127 6.75H9C8.05786 6.75 7.38868 6.75022 6.8623 6.78613C6.34273 6.82159 6.01676 6.889 5.75586 6.99707C4.95971 7.32692 4.32692 7.95971 3.99707 8.75586C3.889 9.01676 3.82159 9.34273 3.78613 9.8623C3.75022 10.3887 3.75 11.0579 3.75 12H2.25C2.25 11.0786 2.24986 10.3499 2.29004 9.76074C2.33069 9.16489 2.41504 8.65666 2.61133 8.18262C3.09342 7.01873 4.01873 6.09342 5.18262 5.61133C5.65666 5.41504 6.16489 5.33069 6.76074 5.29004C7.34995 5.24986 8.07859 5.25 9 5.25H20.0127C19.9889 5.09255 19.9607 4.93549 19.9219 4.78027C19.876 4.59663 19.7571 4.43972 19.5928 4.3457L16.6279 2.65137L17.3721 1.34863L20.3369 3.04297Z" fill="black"/>
</svg>
