<svg width="18.0319" height="18.0319" viewBox="0 0 18.0319 18.0319" fill="none" xmlns="http://www.w3.org/2000/svg">
<g id="Vector">
<path d="M9.76592 7.01592C9.76592 7.50805 9.76794 7.80231 9.7962 8.01299C9.80909 8.10892 9.82432 8.158 9.83331 8.17999C9.83522 8.18463 9.83715 8.1887 9.83819 8.19073L9.83916 8.19268L9.84112 8.19366C9.84298 8.19463 9.84708 8.19656 9.85186 8.19854C9.87361 8.20749 9.92256 8.22268 10.0189 8.23565C10.2295 8.26395 10.5237 8.26592 11.0159 8.26592H15.0159V9.76592H11.0159C10.5659 9.76592 10.1525 9.76783 9.81866 9.72295C9.4633 9.67513 9.08752 9.56213 8.77862 9.25323C8.46987 8.94428 8.35667 8.56853 8.30889 8.21319C8.26405 7.87935 8.26592 7.46595 8.26592 7.01592V3.01592H9.76592V7.01592Z" fill="#000000"/>
<path fill-rule="evenodd" clip-rule="evenodd" d="M3.76983 0.734673C7.19844 -0.244932 10.8334 -0.24485 14.262 0.734673C15.7299 1.15409 16.8776 2.30197 17.2972 3.76983C18.2768 7.19851 18.2767 10.8333 17.2972 14.262C16.8777 15.7301 15.7301 16.8777 14.262 17.2972C10.8333 18.2767 7.19851 18.2768 3.76983 17.2972C2.30197 16.8776 1.15409 15.7299 0.734673 14.262C-0.24485 10.8334 -0.244932 7.19844 0.734673 3.76983C1.15416 2.30195 2.30195 1.15416 3.76983 0.734673ZM13.8499 2.17706C10.6906 1.27448 7.34122 1.2744 4.18194 2.17706C3.21237 2.45417 2.45417 3.21238 2.17706 4.18194C1.2744 7.34122 1.27448 10.6906 2.17706 13.8499C2.4541 14.8195 3.21239 15.5776 4.18194 15.8548C7.34128 16.7575 10.6906 16.7574 13.8499 15.8548C14.8197 15.5777 15.5777 14.8197 15.8548 13.8499C16.7574 10.6906 16.7575 7.34128 15.8548 4.18194C15.5776 3.21239 14.8195 2.4541 13.8499 2.17706Z" fill="#000000"/>
</g>
</svg>


