<svg width="40" height="40" viewBox="0 0 40 40" fill="none" xmlns="http://www.w3.org/2000/svg">
<path d="M23.2683 3.75167C23.8294 3.72273 24.3422 4.07154 24.5199 4.60454L26.8848 11.6993C27.4272 13.3263 27.8094 14.474 28.1885 15.3565C28.5596 16.2202 28.8927 16.7434 29.2888 17.1436C29.7113 17.5704 30.2021 17.9243 30.7406 18.1901C31.2456 18.4394 31.8479 18.5897 32.7849 18.6687C33.742 18.7493 34.9516 18.75 36.6667 18.75V21.25C34.9931 21.25 33.6611 21.2504 32.5749 21.1589C31.4684 21.0657 30.5241 20.8708 29.6338 20.4314C28.8468 20.0428 28.1289 19.5268 27.5114 18.903C26.8131 18.1975 26.3303 17.3629 25.892 16.3428C25.4618 15.3414 25.0409 14.0777 24.5118 12.4903L23.5743 9.67778L17.8874 35.2719C17.7654 35.8198 17.2924 36.2192 16.7318 36.2484C16.1707 36.2774 15.6579 35.9286 15.4802 35.3956L13.1153 28.3008C12.5729 26.6738 12.1907 25.5261 11.8116 24.6436C11.4405 23.7799 11.1073 23.2567 10.7113 22.8565C10.2888 22.4297 9.798 22.0758 9.25948 21.8099C8.75453 21.5607 8.1522 21.4104 7.21521 21.3314C6.25811 21.2508 5.04847 21.25 3.33337 21.25V18.75C5.00694 18.75 6.33898 18.7497 7.42517 18.8412C8.5317 18.9344 9.47602 19.1292 10.3663 19.5687C11.1532 19.9573 11.8712 20.4733 12.4886 21.0971C13.1869 21.8026 13.6698 22.6372 14.1081 23.6573C14.5383 24.6587 14.9592 25.9224 15.4883 27.5098L16.4242 30.3207L22.1127 4.72824L22.1745 4.5313C22.3541 4.08682 22.7774 3.77727 23.2683 3.75167Z" fill="#000000"/>
</svg>
