<svg width="24" height="24" viewBox="0 0 24 24" fill="none" xmlns="http://www.w3.org/2000/svg">
<path fill-rule="evenodd" clip-rule="evenodd" d="M14.805 3.95861C15.4499 3.47514 16.2705 3.28885 17.0609 3.4469C19.8321 4.00126 21.9987 6.16785 22.5531 8.93908L22.6185 9.26623C22.7209 9.778 22.6877 10.3082 22.5228 10.8033L22.4925 10.8942C21.2863 14.5128 18.8569 17.599 15.6224 19.6207L12.9378 21.2985C12.3643 21.6567 11.6364 21.6567 11.0628 21.2985L8.37828 19.6207C5.14355 17.599 2.71442 14.5129 1.50816 10.8942L1.47789 10.8033C1.31293 10.3081 1.27981 9.77807 1.38218 9.26623L1.44761 8.93908C2.00203 6.16782 4.16848 4.00116 6.9398 3.4469C7.73018 3.28897 8.55084 3.475 9.19566 3.95861L11.7572 5.87951C11.8036 5.91429 11.8303 5.9349 11.8509 5.94983C11.8632 5.95867 11.8696 5.96231 11.8714 5.9635C11.9508 6.01128 12.0499 6.01132 12.1293 5.9635C12.1315 5.96208 12.1382 5.95814 12.1498 5.94983C12.1704 5.93492 12.1974 5.9141 12.2435 5.87951L14.805 3.95861ZM16.7669 4.9176C16.3951 4.84323 16.0089 4.93146 15.7054 5.15881L13.1439 7.07971C13.0685 7.13625 12.9882 7.1977 12.9056 7.24768C12.3493 7.58375 11.6515 7.5837 11.0951 7.24768C11.0123 7.19767 10.9323 7.13633 10.8568 7.07971L8.29527 5.15881C7.99185 4.93132 7.60562 4.84335 7.23374 4.9176C5.0563 5.35313 3.354 7.05564 2.91831 9.23303L2.85289 9.56018C2.80168 9.81619 2.81821 10.082 2.90074 10.3297L2.93101 10.4196C4.02699 13.7075 6.23422 16.5114 9.1732 18.3483L11.8578 20.026C11.945 20.0804 12.0557 20.0805 12.1429 20.026L14.8275 18.3483C17.7663 16.5114 19.9738 13.7073 21.0697 10.4196L21.1 10.3297C21.1824 10.0821 21.199 9.81612 21.1478 9.56018L21.0824 9.23303C20.6468 7.05567 18.9443 5.35323 16.7669 4.9176Z" fill="black"/>
</svg>
